<?xml version="1.0" encoding="UTF-8"?>
<svg xmlns="http://www.w3.org/2000/svg" xmlns:xlink="http://www.w3.org/1999/xlink" version="1.1" width="18.559mm" height="9.709mm" viewBox="0 0 18.559 9.709">
  <title>Shaparak Pro - Persian features heading</title>
  <desc>عنوان ویژگی‌ها - 18.6 x 9.7 mm, text converted to curves.</desc>
  <g transform="translate(2.1863 6.0471)" id="FEATURES-TITLE-FA" data-name="FEATURES-TITLE-FA">
    <g id="features-title-fa" data-name="features-title-fa">
      <path d="M0.3137 -2.982H0.7713V-0.9668Q0.7713 -0.6982 0.8626 -0.5951Q0.9539 -0.492 1.173 -0.492H1.2268V0H1.173Q0.7326 0 0.5231 -0.232Q0.3137 -0.4641 0.3137 -0.9453ZM2.2773 -0.1805Q2.0883 -0.1117 1.8391 -0.0559Q1.5898 0 1.3535 0H1.1408V-0.492H1.3256Q1.4352 -0.492 1.5243 -0.4963Q1.6135 -0.5006 1.7145 -0.5113Q1.6027 -0.6166 1.5479 -0.7595Q1.4932 -0.9023 1.4932 -1.042Q1.4932 -1.2482 1.5931 -1.4158Q1.693 -1.5834 1.8702 -1.6844Q2.0475 -1.7854 2.2838 -1.7875L2.4836 -2.1721Q3.0078 -1.9207 3.3602 -1.7134Q3.7125 -1.5061 3.8908 -1.3009Q4.0691 -1.0957 4.0691 -0.8443Q4.0691 -0.4404 3.8221 -0.231Q3.575 -0.0215 3.1646 -0.0215Q3.0164 -0.0215 2.851 -0.0462Q2.6855 -0.0709 2.5352 -0.1085Q2.3848 -0.1461 2.2773 -0.1805ZM2.808 -0.5027Q3.0229 -0.4705 3.1797 -0.4705Q3.3816 -0.4705 3.5041 -0.5543Q3.6266 -0.6381 3.6266 -0.8336Q3.6266 -1.057 2.967 -1.4223Q3.068 -1.2633 3.068 -1.085Q3.068 -0.898 2.9992 -0.7573Q2.9305 -0.6166 2.808 -0.5027ZM1.9357 -1.0463Q1.9357 -0.9217 2.0421 -0.8078Q2.1484 -0.6939 2.3182 -0.6316Q2.4643 -0.6854 2.5695 -0.7896Q2.6748 -0.8938 2.6748 -1.0248Q2.6748 -1.1859 2.5706 -1.2858Q2.4664 -1.3857 2.3203 -1.3857Q2.157 -1.3857 2.0464 -1.2901Q1.9357 -1.1945 1.9357 -1.0463ZM5.7686 1.1064Q5.3002 1.1064 5.0134 0.9313Q4.7266 0.7563 4.5955 0.4619Q4.4645 0.1676 4.4645 -0.1848Q4.4645 -0.3609 4.4956 -0.5693Q4.5268 -0.7777 4.6127 -1.0205L5.0316 -0.8658Q4.9693 -0.6639 4.9425 -0.4898Q4.9156 -0.3158 4.9156 -0.1805Q4.9156 0.0408 4.994 0.2224Q5.0725 0.4039 5.2583 0.5113Q5.4441 0.6188 5.7686 0.6188Q6.0994 0.6188 6.3186 0.5436Q6.5377 0.4684 6.6483 0.3685Q6.759 0.2686 6.759 0.1955Q6.759 0.1031 6.6773 0.0526Q6.5957 0.0021 6.4152 0.0021H6.0887Q6.0242 0.0021 6.0038 -0.0397Q5.9834 -0.0816 5.9641 -0.1482L5.891 -0.4082Q5.8824 -0.4426 5.891 -0.4662Q5.8996 -0.4898 5.949 -0.4898H7.1865V0.0021H7.1457Q7.1693 0.0559 7.1758 0.0988Q7.1822 0.1418 7.1822 0.1912Q7.1822 0.4125 7.0232 0.623Q6.8643 0.8336 6.5506 0.97Q6.2369 1.1064 5.7686 1.1064ZM7.2961 -2.5889V-2.8639L8.9783 -3.5471V-3.2721ZM7.7322 -2.041Q7.932 -1.9121 8.1243 -1.7757Q8.3166 -1.6393 8.4724 -1.4889Q8.6281 -1.3385 8.7205 -1.1688Q8.8129 -0.999 8.8129 -0.7992Q8.8129 -0.3523 8.51 -0.1762Q8.207 0 7.6248 0H7.1006V-0.492H7.6227Q8.0072 -0.492 8.1845 -0.5554Q8.3617 -0.6188 8.3617 -0.8078Q8.3617 -0.9174 8.2597 -1.0355Q8.1576 -1.1537 7.9986 -1.2729Q7.8396 -1.3922 7.6667 -1.5082Q7.4938 -1.6242 7.352 -1.7338Q7.2725 -1.7918 7.2316 -1.881Q7.1908 -1.9701 7.1908 -2.0625Q7.1908 -2.1635 7.2435 -2.2537Q7.2961 -2.3439 7.4057 -2.3891L8.9998 -3.0379V-2.5545ZM9.6572 -2.7371 9.9709 -2.4234 9.6572 -2.1098 9.3436 -2.4234ZM10.0289 -2.1914 10.3426 -1.8777 10.0289 -1.5641 9.7152 -1.8777ZM9.2877 -2.1914 9.6014 -1.8777 9.2877 -1.5641 8.9719 -1.8777ZM10.5059 0Q10.3812 0 10.2878 -0.0312Q10.1943 -0.0623 10.1385 -0.1031Q10.0955 0.1998 9.9516 0.4598Q9.8076 0.7197 9.5487 0.9034Q9.2898 1.0871 8.8967 1.1623L8.7334 0.7197Q9.2318 0.6123 9.4703 0.3609Q9.7088 0.1096 9.7088 -0.2986Q9.7088 -0.4877 9.6594 -0.7068Q9.61 -0.926 9.5391 -1.1365L9.9924 -1.2869L10.1127 -0.8207Q10.1557 -0.6574 10.2437 -0.5747Q10.3318 -0.492 10.4822 -0.492H10.5639V0ZM10.4779 -0.492H11.0902Q11.2814 -0.492 11.3513 -0.6059Q11.4211 -0.7197 11.4211 -0.8959Q11.4211 -1.0377 11.391 -1.2042Q11.3609 -1.3707 11.3287 -1.534L11.7842 -1.65Q11.8229 -1.4631 11.8454 -1.2848Q11.868 -1.1064 11.868 -0.941Q11.868 -0.6703 11.7949 -0.4576Q11.7219 -0.2449 11.5511 -0.1225Q11.3803 0 11.0902 0H10.4779ZM11.4018 0.3115 11.7326 0.6402 11.4018 0.9732 11.0752 0.6402ZM10.6842 0.3115 11.015 0.6402 10.6842 0.9732 10.3555 0.6402ZM13.8725 -0.4146Q13.8725 0.2643 13.4986 0.6456Q13.1248 1.027 12.4352 1.1602L12.2697 0.7176Q12.7402 0.6273 13.0356 0.4351Q13.3311 0.2428 13.3955 -0.043Q13.3246 -0.0215 13.2397 -0.0075Q13.1549 0.0064 13.0861 0.0064Q12.6908 0.0064 12.4771 -0.1654Q12.2633 -0.3373 12.2633 -0.7068Q12.2633 -0.8723 12.3127 -1.0409Q12.3621 -1.2096 12.4599 -1.3503Q12.5576 -1.491 12.7005 -1.578Q12.8434 -1.665 13.0281 -1.665Q13.2451 -1.665 13.4041 -1.5598Q13.5631 -1.4545 13.6662 -1.2751Q13.7693 -1.0957 13.8209 -0.8733Q13.8725 -0.651 13.8725 -0.4146ZM13.0883 -0.4834Q13.1807 -0.4834 13.2688 -0.4963Q13.3568 -0.5092 13.4299 -0.5307Q13.4084 -0.8057 13.3128 -0.9947Q13.2172 -1.1838 13.0238 -1.1838Q12.8992 -1.1838 12.8294 -1.1043Q12.7596 -1.0248 12.7316 -0.9174Q12.7037 -0.81 12.7037 -0.7262Q12.7037 -0.5865 12.8047 -0.535Q12.9057 -0.4834 13.0883 -0.4834Z" fill="#16203F"/>
    </g>
  </g>
</svg>
