<?xml version="1.0" encoding="UTF-8"?>
<svg xmlns="http://www.w3.org/2000/svg" xmlns:xlink="http://www.w3.org/1999/xlink" version="1.1" width="20.046mm" height="9.17mm" viewBox="0 0 20.046 9.17">
  <title>Shaparak Pro - Feature label: High Absorbency</title>
  <desc>برچسب ویژگی: جذب بالا - 20.0 x 9.2 mm, text converted to curves.</desc>
  <g transform="translate(2.2830 5.6861)" id="LABEL-FEATURE-ABSORBENT-FA" data-name="LABEL-FEATURE-ABSORBENT-FA">
    <g id="absorbent" data-name="absorbent">
      <path d="M0.623 0Q0.5242 0 0.4222 -0.0064Q0.3201 -0.0129 0.217 -0.0215V-0.4898Q0.3502 -0.4813 0.4608 -0.4748Q0.5715 -0.4684 0.666 -0.4684Q0.7992 -0.4684 0.8723 -0.4748Q0.8723 -0.4748 0.8486 -0.6059Q0.825 -0.7369 0.7745 -0.9625Q0.724 -1.1881 0.6467 -1.476Q0.5693 -1.7639 0.463 -2.0829Q0.3566 -2.402 0.217 -2.7156L0.6359 -2.9025Q0.7734 -2.576 0.883 -2.243Q0.9926 -1.91 1.0731 -1.6092Q1.1537 -1.3084 1.2063 -1.0721Q1.259 -0.8357 1.2848 -0.6982Q1.3105 -0.5607 1.3105 -0.5607Q1.5275 -0.6359 1.6575 -0.8282Q1.7875 -1.0205 1.7875 -1.4201V-2.982H2.2451V-1.4051Q2.2451 -0.9689 2.1151 -0.6929Q1.9852 -0.4168 1.7596 -0.2664Q1.534 -0.116 1.2418 -0.058Q0.9496 0 0.623 0ZM2.8703 -2.982H3.3279V-0.9668Q3.3279 -0.6982 3.4192 -0.5951Q3.5105 -0.492 3.7297 -0.492H3.7834V0H3.7297Q3.2893 0 3.0798 -0.232Q2.8703 -0.4641 2.8703 -0.9453ZM4.0863 0H3.6953V-0.492H4.0863Q4.2775 -0.492 4.3474 -0.6059Q4.4172 -0.7197 4.4172 -0.8959Q4.4172 -1.0377 4.3871 -1.2042Q4.357 -1.3707 4.3248 -1.534L4.7803 -1.65Q4.8189 -1.4631 4.8415 -1.2848Q4.8641 -1.1064 4.8641 -0.941Q4.8641 -0.6703 4.791 -0.4576Q4.718 -0.2449 4.5472 -0.1225Q4.3764 0 4.0863 0ZM4.1379 0.2965 4.4816 0.6402 4.1379 0.984 3.7941 0.6402ZM8.2156 0.2965 8.5594 0.6402 8.2156 0.984 7.8719 0.6402ZM8.5637 0H8.0652Q7.5453 0 7.1726 -0.0913Q6.7998 -0.1826 6.6011 -0.4039Q6.4023 -0.6252 6.4023 -1.0184Q6.4023 -1.1859 6.4389 -1.346Q6.4754 -1.5061 6.5355 -1.6479L6.948 -1.4932Q6.9137 -1.3965 6.8847 -1.2772Q6.8557 -1.158 6.8557 -1.0506Q6.8557 -0.8164 7.0039 -0.6961Q7.1521 -0.5758 7.4239 -0.5339Q7.6957 -0.492 8.0652 -0.492H8.568Q8.7936 -0.492 8.9966 -0.5146Q9.1996 -0.5371 9.3274 -0.623Q9.4553 -0.709 9.4553 -0.8959Q9.4553 -1.027 9.4273 -1.1988Q9.3994 -1.3707 9.3629 -1.534L9.8205 -1.65Q9.8613 -1.4674 9.8828 -1.2794Q9.9043 -1.0914 9.9043 -0.9389Q9.9043 -0.6338 9.8012 -0.4469Q9.698 -0.26 9.5154 -0.1633Q9.3328 -0.0666 9.089 -0.0333Q8.8451 0 8.5637 0ZM11.2084 -3.1861 11.5521 -2.8424 11.2084 -2.4986 10.8646 -2.8424ZM11.5285 -0.8465Q11.5285 -0.9023 11.5038 -0.9904Q11.4791 -1.0785 11.449 -1.1473L11.0494 -2.041L11.4619 -2.2387L11.9689 -1.0549Q12.0957 -0.7605 12.1827 -0.6263Q12.2697 -0.492 12.4158 -0.492H12.5061V0H12.4158Q12.1688 0 12.0355 -0.0924Q11.9023 -0.1848 11.7863 -0.3502Q11.6295 -0.174 11.4007 -0.0881Q11.1719 -0.0021 10.8346 -0.0021Q10.667 -0.0021 10.5424 -0.0161Q10.4178 -0.0301 10.2975 -0.058V-0.5479Q10.4285 -0.5178 10.5574 -0.5027Q10.6863 -0.4877 10.8023 -0.4877Q11.1246 -0.4877 11.3266 -0.5726Q11.5285 -0.6574 11.5285 -0.8465ZM13.8939 0.2965 14.2377 0.6402 13.8939 0.984 13.5502 0.6402ZM12.4201 -0.492H12.7854Q13.0969 -0.492 13.3515 -0.5586Q13.6061 -0.6252 13.8725 -0.7466Q14.1389 -0.868 14.4826 -1.0312Q14.2721 -1.1086 14.0776 -1.1859Q13.8832 -1.2633 13.7414 -1.3159Q13.5996 -1.3686 13.5438 -1.3686Q13.4191 -1.3686 13.3214 -1.2934Q13.2236 -1.2182 13.1506 -1.1236L13.0689 -1.0205L12.6736 -1.2139L12.7338 -1.3105Q12.8799 -1.549 13.0786 -1.6994Q13.2773 -1.8498 13.5459 -1.8498Q13.6576 -1.8498 13.8112 -1.795Q13.9648 -1.7402 14.1442 -1.6586Q14.3236 -1.577 14.5159 -1.4942Q14.7082 -1.4115 14.8983 -1.3535Q15.0885 -1.2955 15.2625 -1.2912V-0.8336Q15.0799 -0.8121 14.8715 -0.7219Q14.6631 -0.6316 14.3408 -0.4598Q14.0658 -0.3137 13.8263 -0.2105Q13.5867 -0.1074 13.3375 -0.0537Q13.0883 0 12.7789 0H12.4201Z" fill="#16203F"/>
    </g>
  </g>
</svg>
