<?xml version="1.0" encoding="UTF-8"?>
<svg xmlns="http://www.w3.org/2000/svg" xmlns:xlink="http://www.w3.org/1999/xlink" version="1.1" width="15.628mm" height="9.144mm" viewBox="0 0 15.628 9.144">
  <title>Shaparak Pro - Usage label: POOL</title>
  <desc>برچسب کاربرد: استخر - 15.6 x 9.1 mm, text converted to curves.</desc>
  <g transform="translate(2.5645 5.4820)" id="LABEL-USAGE-POOL-FA" data-name="LABEL-USAGE-POOL-FA">
    <g id="pool" data-name="pool">
      <path d="M1.708 0Q1.5834 0 1.4899 -0.0312Q1.3965 -0.0623 1.3406 -0.1031Q1.2977 0.1998 1.1537 0.4598Q1.0098 0.7197 0.7509 0.9034Q0.492 1.0871 0.0988 1.1623L-0.0645 0.7197Q0.434 0.6123 0.6725 0.3609Q0.9109 0.1096 0.9109 -0.2986Q0.9109 -0.4877 0.8615 -0.7068Q0.8121 -0.926 0.7412 -1.1365L1.1945 -1.2869L1.3148 -0.8207Q1.3578 -0.6574 1.4459 -0.5747Q1.534 -0.492 1.6844 -0.492H1.766V0ZM3.0186 -2.8488 3.3623 -2.5051 3.0186 -2.1613 2.6748 -2.5051ZM4.5225 -1.2912V-0.8379Q4.4172 -0.8271 4.2915 -0.7863Q4.1658 -0.7455 4.0455 -0.6896Q4.0627 -0.565 4.2271 -0.5285Q4.3914 -0.492 4.6471 -0.492H4.7652V0H4.6385Q4.2195 0 3.9918 -0.1106Q3.7641 -0.2213 3.7018 -0.5156Q3.2893 -0.2922 2.8918 -0.1461Q2.4943 0 2.0389 0H1.6801V-0.492H2.0453Q2.3568 -0.492 2.6104 -0.5586Q2.8639 -0.6252 3.1303 -0.7466Q3.3967 -0.868 3.7426 -1.0312Q3.532 -1.1086 3.3376 -1.187Q3.1432 -1.2654 3.0014 -1.317Q2.8596 -1.3686 2.8037 -1.3686Q2.6791 -1.3686 2.5813 -1.2934Q2.4836 -1.2182 2.4105 -1.1236L2.3289 -1.0205L1.9336 -1.2139L1.9938 -1.3105Q2.1398 -1.549 2.3386 -1.6994Q2.5373 -1.8498 2.8059 -1.8498Q2.9176 -1.8498 3.0712 -1.795Q3.2248 -1.7402 3.4042 -1.6586Q3.5836 -1.577 3.7759 -1.4942Q3.9682 -1.4115 4.1583 -1.3535Q4.3484 -1.2955 4.5225 -1.2912ZM5.6268 -2.4428 5.9576 -2.1141 5.6268 -1.7811 5.3002 -2.1141ZM4.9092 -2.4428 5.24 -2.1141 4.9092 -1.7811 4.5805 -2.1141ZM4.6793 -0.492H4.9801Q5.2357 -0.492 5.341 -0.5962Q5.4463 -0.7004 5.4463 -0.9367Q5.4463 -1.0506 5.4409 -1.1548Q5.4355 -1.259 5.427 -1.36L5.8631 -1.4137L5.9018 -0.8615Q5.9232 -0.492 6.2971 -0.492H6.3422V0H6.2928Q6.065 0 5.9168 -0.0816Q5.7686 -0.1633 5.6762 -0.3072Q5.5537 -0.1547 5.3689 -0.0773Q5.1842 0 4.9801 0H4.6793ZM7.7537 0Q7.5195 0 7.3799 -0.0795Q7.2402 -0.159 7.1543 -0.3029Q7.0447 -0.159 6.8857 -0.0795Q6.7268 0 6.4539 0H6.2563V-0.492H6.4582Q6.716 -0.492 6.831 -0.5747Q6.9459 -0.6574 6.9459 -0.9066Q6.9459 -0.9604 6.9395 -1.0678Q6.933 -1.1752 6.9223 -1.3041L7.3605 -1.3578L7.3992 -0.8508Q7.41 -0.6875 7.498 -0.5897Q7.5861 -0.492 7.758 -0.492Q7.9643 -0.492 8.0362 -0.593Q8.1082 -0.6939 8.1082 -0.9066Q8.1082 -0.9582 8.1018 -1.0667Q8.0953 -1.1752 8.0846 -1.3041L8.5229 -1.3578L8.5615 -0.8508Q8.5723 -0.6961 8.6421 -0.594Q8.7119 -0.492 8.8752 -0.492Q9.032 -0.492 9.0911 -0.6112Q9.1502 -0.7305 9.1502 -0.8938Q9.1502 -1.0656 9.1126 -1.2418Q9.075 -1.418 9.0514 -1.5061L9.5025 -1.6285Q9.5434 -1.4717 9.5691 -1.2966Q9.5949 -1.1215 9.5949 -0.9496Q9.5949 -0.7025 9.5283 -0.4855Q9.4617 -0.2686 9.3049 -0.1354Q9.148 -0.0021 8.8795 0Q8.6775 0 8.5486 -0.0827Q8.4197 -0.1654 8.3359 -0.3051Q8.2199 -0.1568 8.076 -0.0784Q7.932 0 7.7537 0ZM10.5639 -2.982V-0.0021H10.1063V-2.982Z" fill="#16203F"/>
    </g>
  </g>
</svg>
