<?xml version="1.0" encoding="UTF-8"?>
<svg xmlns="http://www.w3.org/2000/svg" xmlns:xlink="http://www.w3.org/1999/xlink" version="1.1" width="155mm" height="21mm" viewBox="0 0 155 21">
  <title>Shaparak Pro - Seal band with euro hang slot, Version 1 - Turquoise</title>
  <desc>نوار دوخت با جای آویز – نسخه ۱ – فیروزه‌ای - 155.0 x 21.0 mm, text converted to curves.</desc>
  <g transform="translate(2.5000 2.5000)" id="HANG-SLOT-V1-TURQUOISE" data-name="HANG-SLOT-V1-TURQUOISE">
    <g id="seal-band" data-name="seal-band">
      <rect x="0" y="0" width="150" height="16" fill="#5BB2AD"/>
      <g opacity="0.5" id="crimp-ribbing" data-name="crimp-ribbing">
        <line x1="0" y1="0.95" x2="150" y2="0.95" stroke="#8CCBC7" stroke-width="0.3"/>
        <line x1="0" y1="1.9" x2="150" y2="1.9" stroke="#8CCBC7" stroke-width="0.3"/>
        <line x1="0" y1="2.85" x2="150" y2="2.85" stroke="#8CCBC7" stroke-width="0.3"/>
        <line x1="0" y1="3.8" x2="150" y2="3.8" stroke="#8CCBC7" stroke-width="0.3"/>
        <line x1="0" y1="4.75" x2="150" y2="4.75" stroke="#8CCBC7" stroke-width="0.3"/>
        <line x1="0" y1="5.7" x2="150" y2="5.7" stroke="#8CCBC7" stroke-width="0.3"/>
        <line x1="0" y1="6.65" x2="150" y2="6.65" stroke="#8CCBC7" stroke-width="0.3"/>
        <line x1="0" y1="7.6" x2="150" y2="7.6" stroke="#8CCBC7" stroke-width="0.3"/>
        <line x1="0" y1="8.55" x2="150" y2="8.55" stroke="#8CCBC7" stroke-width="0.3"/>
        <line x1="0" y1="9.5" x2="150" y2="9.5" stroke="#8CCBC7" stroke-width="0.3"/>
        <line x1="0" y1="10.45" x2="150" y2="10.45" stroke="#8CCBC7" stroke-width="0.3"/>
        <line x1="0" y1="11.4" x2="150" y2="11.4" stroke="#8CCBC7" stroke-width="0.3"/>
        <line x1="0" y1="12.35" x2="150" y2="12.35" stroke="#8CCBC7" stroke-width="0.3"/>
        <line x1="0" y1="13.3" x2="150" y2="13.3" stroke="#8CCBC7" stroke-width="0.3"/>
        <line x1="0" y1="14.25" x2="150" y2="14.25" stroke="#8CCBC7" stroke-width="0.3"/>
      </g>
      <g id="hang-slot" data-name="hang-slot">
        <path d="M65.5,9.6 a1.4,1.4 0 0 1 1.4,-1.4 h3.6 a4.6,4.6 0 0 1 9.0,0 h3.6 a1.4,1.4 0 0 1 1.4,1.4 v1.9 a1.4,1.4 0 0 1 -1.4,1.4 h-16.2 a1.4,1.4 0 0 1 -1.4,-1.4 Z" fill="#FDFDFC"/>
      </g>
    </g>
  </g>
</svg>
