<?xml version="1.0" encoding="UTF-8"?>
<svg xmlns="http://www.w3.org/2000/svg" xmlns:xlink="http://www.w3.org/1999/xlink" version="1.1" width="116.682mm" height="68.043mm" viewBox="0 0 116.682 68.043">
  <title>Shaparak Pro - Folded towel butterfly</title>
  <desc>پروانه حوله تاشده - 116.7 x 68.0 mm, text converted to curves.</desc>
  <g transform="translate(-1.6592 -23.2506)" id="TOWEL-BUTTERFLY" data-name="TOWEL-BUTTERFLY">
    <g id="towel-butterfly" data-name="towel-butterfly">
      <g transform="translate(60 55) scale(1.2088)" id="towel-butterfly" data-name="towel-butterfly">
        <g fill="#F7F7F5" stroke="#BE8C3C" stroke-width="1.1168" stroke-linejoin="round" id="asset-towel-wings" data-name="asset-towel-wings">
          <path d="M2.5,-1.5 C4.0,-11.0 10.0,-20.0 20.0,-23.0 C32.0,-26.5 45.0,-21.0 46.0,-10.5 C46.8,-2.0 38.0,4.2 26.0,4.6 C14.0,5.2 5.0,4.8 2.5,-1.5 Z"/>
          <path d="M3.0,3.4 C11.0,2.2 23.0,4.6 29.5,10.4 C36.5,17.2 33.0,27.4 22.5,27.8 C12.0,28.2 4.4,18.0 3.0,3.4 Z"/>
          <path d="M2.5,-1.5 C4.0,-11.0 10.0,-20.0 20.0,-23.0 C32.0,-26.5 45.0,-21.0 46.0,-10.5 C46.8,-2.0 38.0,4.2 26.0,4.6 C14.0,5.2 5.0,4.8 2.5,-1.5 Z" transform="scale(-1 1)"/>
          <path d="M3.0,3.4 C11.0,2.2 23.0,4.6 29.5,10.4 C36.5,17.2 33.0,27.4 22.5,27.8 C12.0,28.2 4.4,18.0 3.0,3.4 Z" transform="scale(-1 1)"/>
        </g>
        <g opacity="0.5" id="asset-towel-texture" data-name="asset-towel-texture">
          <line x1="25.7098" y1="-23.9" x2="29.0064" y2="-23.9" stroke="#E7E7E4" stroke-width="0.364" stroke-linecap="round"/>
          <line x1="-29.0064" y1="-23.9" x2="-25.7098" y2="-23.9" stroke="#E7E7E4" stroke-width="0.364" stroke-linecap="round"/>
          <line x1="17.951" y1="-21.8" x2="36.4272" y2="-21.8" stroke="#E7E7E4" stroke-width="0.364" stroke-linecap="round"/>
          <line x1="-36.4272" y1="-21.8" x2="-17.951" y2="-21.8" stroke="#E7E7E4" stroke-width="0.364" stroke-linecap="round"/>
          <line x1="14.3431" y1="-19.7" x2="39.7689" y2="-19.7" stroke="#E7E7E4" stroke-width="0.364" stroke-linecap="round"/>
          <line x1="-39.7689" y1="-19.7" x2="-14.3431" y2="-19.7" stroke="#E7E7E4" stroke-width="0.364" stroke-linecap="round"/>
          <line x1="11.7945" y1="-17.6" x2="41.9092" y2="-17.6" stroke="#E7E7E4" stroke-width="0.364" stroke-linecap="round"/>
          <line x1="-41.9092" y1="-17.6" x2="-11.7945" y2="-17.6" stroke="#E7E7E4" stroke-width="0.364" stroke-linecap="round"/>
          <line x1="9.8154" y1="-15.5" x2="43.3541" y2="-15.5" stroke="#E7E7E4" stroke-width="0.364" stroke-linecap="round"/>
          <line x1="-43.3541" y1="-15.5" x2="-9.8154" y2="-15.5" stroke="#E7E7E4" stroke-width="0.364" stroke-linecap="round"/>
          <line x1="8.2372" y1="-13.4" x2="44.2758" y2="-13.4" stroke="#E7E7E4" stroke-width="0.364" stroke-linecap="round"/>
          <line x1="-44.2758" y1="-13.4" x2="-8.2372" y2="-13.4" stroke="#E7E7E4" stroke-width="0.364" stroke-linecap="round"/>
          <line x1="6.9427" y1="-11.3" x2="44.7897" y2="-11.3" stroke="#E7E7E4" stroke-width="0.364" stroke-linecap="round"/>
          <line x1="-44.7897" y1="-11.3" x2="-6.9427" y2="-11.3" stroke="#E7E7E4" stroke-width="0.364" stroke-linecap="round"/>
          <line x1="5.8918" y1="-9.2" x2="44.9391" y2="-9.2" stroke="#E7E7E4" stroke-width="0.364" stroke-linecap="round"/>
          <line x1="-44.9391" y1="-9.2" x2="-5.8918" y2="-9.2" stroke="#E7E7E4" stroke-width="0.364" stroke-linecap="round"/>
          <line x1="5.042" y1="-7.1" x2="44.6913" y2="-7.1" stroke="#E7E7E4" stroke-width="0.364" stroke-linecap="round"/>
          <line x1="-44.6913" y1="-7.1" x2="-5.042" y2="-7.1" stroke="#E7E7E4" stroke-width="0.364" stroke-linecap="round"/>
          <line x1="4.369" y1="-5" x2="43.9779" y2="-5" stroke="#E7E7E4" stroke-width="0.364" stroke-linecap="round"/>
          <line x1="-43.9779" y1="-5" x2="-4.369" y2="-5" stroke="#E7E7E4" stroke-width="0.364" stroke-linecap="round"/>
          <line x1="3.8586" y1="-2.9" x2="42.7313" y2="-2.9" stroke="#E7E7E4" stroke-width="0.364" stroke-linecap="round"/>
          <line x1="-42.7313" y1="-2.9" x2="-3.8586" y2="-2.9" stroke="#E7E7E4" stroke-width="0.364" stroke-linecap="round"/>
          <line x1="3.9191" y1="-0.8" x2="40.7875" y2="-0.8" stroke="#E7E7E4" stroke-width="0.364" stroke-linecap="round"/>
          <line x1="-40.7875" y1="-0.8" x2="-3.9191" y2="-0.8" stroke="#E7E7E4" stroke-width="0.364" stroke-linecap="round"/>
          <line x1="5.503" y1="1.3" x2="37.8173" y2="1.3" stroke="#E7E7E4" stroke-width="0.364" stroke-linecap="round"/>
          <line x1="-37.8173" y1="1.3" x2="-5.503" y2="1.3" stroke="#E7E7E4" stroke-width="0.364" stroke-linecap="round"/>
          <line x1="9.1013" y1="3.4" x2="32.7349" y2="3.4" stroke="#E7E7E4" stroke-width="0.364" stroke-linecap="round"/>
          <line x1="4.1" y1="3.4" x2="10.9169" y2="3.4" stroke="#E7E7E4" stroke-width="0.364" stroke-linecap="round"/>
          <line x1="-32.7349" y1="3.4" x2="-9.1013" y2="3.4" stroke="#E7E7E4" stroke-width="0.364" stroke-linecap="round"/>
          <line x1="-10.9169" y1="3.4" x2="-4.1" y2="3.4" stroke="#E7E7E4" stroke-width="0.364" stroke-linecap="round"/>
          <line x1="4.3541" y1="5.5" x2="19.7748" y2="5.5" stroke="#E7E7E4" stroke-width="0.364" stroke-linecap="round"/>
          <line x1="-19.7748" y1="5.5" x2="-4.3541" y2="5.5" stroke="#E7E7E4" stroke-width="0.364" stroke-linecap="round"/>
          <line x1="4.6993" y1="7.6" x2="24.41" y2="7.6" stroke="#E7E7E4" stroke-width="0.364" stroke-linecap="round"/>
          <line x1="-24.41" y1="7.6" x2="-4.6993" y2="7.6" stroke="#E7E7E4" stroke-width="0.364" stroke-linecap="round"/>
          <line x1="5.1538" y1="9.7" x2="27.564" y2="9.7" stroke="#E7E7E4" stroke-width="0.364" stroke-linecap="round"/>
          <line x1="-27.564" y1="9.7" x2="-5.1538" y2="9.7" stroke="#E7E7E4" stroke-width="0.364" stroke-linecap="round"/>
          <line x1="5.7281" y1="11.8" x2="29.6543" y2="11.8" stroke="#E7E7E4" stroke-width="0.364" stroke-linecap="round"/>
          <line x1="-29.6543" y1="11.8" x2="-5.7281" y2="11.8" stroke="#E7E7E4" stroke-width="0.364" stroke-linecap="round"/>
          <line x1="6.4403" y1="13.9" x2="30.9721" y2="13.9" stroke="#E7E7E4" stroke-width="0.364" stroke-linecap="round"/>
          <line x1="-30.9721" y1="13.9" x2="-6.4403" y2="13.9" stroke="#E7E7E4" stroke-width="0.364" stroke-linecap="round"/>
          <line x1="7.3058" y1="16" x2="31.7505" y2="16" stroke="#E7E7E4" stroke-width="0.364" stroke-linecap="round"/>
          <line x1="-31.7505" y1="16" x2="-7.3058" y2="16" stroke="#E7E7E4" stroke-width="0.364" stroke-linecap="round"/>
          <line x1="8.3702" y1="18.1" x2="32.0311" y2="18.1" stroke="#E7E7E4" stroke-width="0.364" stroke-linecap="round"/>
          <line x1="-32.0311" y1="18.1" x2="-8.3702" y2="18.1" stroke="#E7E7E4" stroke-width="0.364" stroke-linecap="round"/>
          <line x1="9.6827" y1="20.2" x2="31.8379" y2="20.2" stroke="#E7E7E4" stroke-width="0.364" stroke-linecap="round"/>
          <line x1="-31.8379" y1="20.2" x2="-9.6827" y2="20.2" stroke="#E7E7E4" stroke-width="0.364" stroke-linecap="round"/>
          <line x1="11.3448" y1="22.3" x2="31.1078" y2="22.3" stroke="#E7E7E4" stroke-width="0.364" stroke-linecap="round"/>
          <line x1="-31.1078" y1="22.3" x2="-11.3448" y2="22.3" stroke="#E7E7E4" stroke-width="0.364" stroke-linecap="round"/>
          <line x1="13.5454" y1="24.4" x2="29.6406" y2="24.4" stroke="#E7E7E4" stroke-width="0.364" stroke-linecap="round"/>
          <line x1="-29.6406" y1="24.4" x2="-13.5454" y2="24.4" stroke="#E7E7E4" stroke-width="0.364" stroke-linecap="round"/>
          <line x1="16.9434" y1="26.5" x2="26.7903" y2="26.5" stroke="#E7E7E4" stroke-width="0.364" stroke-linecap="round"/>
          <line x1="-26.7903" y1="26.5" x2="-16.9434" y2="26.5" stroke="#E7E7E4" stroke-width="0.364" stroke-linecap="round"/>
        </g>
        <g fill="#F7F7F5" stroke="#BE8C3C" stroke-width="1.1168" stroke-linejoin="round" id="asset-towel-body" data-name="asset-towel-body">
          <path d="M0,-6.2 C2.7,-3.2 2.7,0.6 0,3.2 C-2.7,0.6 -2.7,-3.2 0,-6.2 Z"/>
          <path d="M0,4.2 C3.1,8.4 3.1,16.4 0,22.4 C-3.1,16.4 -3.1,8.4 0,4.2 Z"/>
        </g>
        <g fill="none" stroke="#BE8C3C" stroke-width="0.6924" stroke-linecap="round" id="asset-towel-antennae" data-name="asset-towel-antennae">
          <path d="M0,-5.2 C1.8,-11.0 4.2,-16.0 7.6,-19.2"/>
          <circle cx="8.6" cy="-19.9" r="1.5" fill="#BE8C3C" stroke="none"/>
          <path d="M0,-5.2 C-1.8,-11.0 -4.2,-16.0 -7.6,-19.2"/>
          <circle cx="-8.6" cy="-19.9" r="1.5" fill="#BE8C3C" stroke="none"/>
        </g>
      </g>
    </g>
  </g>
</svg>
