<?xml version="1.0" encoding="UTF-8"?>
<svg xmlns="http://www.w3.org/2000/svg" xmlns:xlink="http://www.w3.org/1999/xlink" version="1.1" width="60.344mm" height="19.382mm" viewBox="0 0 60.344 19.382">
  <title>Shaparak Pro - Follow Us block with QR code</title>
  <desc>بلوک شبکه‌های اجتماعی با کیوآر - 60.3 x 19.4 mm, text converted to curves.</desc>
  <g transform="translate(-7.5000 -140.5001)" id="FOLLOW-US" data-name="FOLLOW-US">
    <g id="04-FOLLOW-US" data-name="04-FOLLOW-US">
      <g id="qr-code" data-name="qr-code">
        <path d="M10,143 h3.1379 v0.4483 h-3.1379 Z M13.5862,143 h0.4483 v0.4483 h-0.4483 Z M14.931,143 h0.4483 v0.4483 h-0.4483 Z M15.8276,143 h0.8966 v0.4483 h-0.8966 Z M17.1724,143 h1.3448 v0.4483 h-1.3448 Z M19.8621,143 h3.1379 v0.4483 h-3.1379 Z M10,143.4483 h0.4483 v0.4483 h-0.4483 Z M12.6897,143.4483 h0.4483 v0.4483 h-0.4483 Z M14.0345,143.4483 h3.1379 v0.4483 h-3.1379 Z M18.069,143.4483 h1.3448 v0.4483 h-1.3448 Z M19.8621,143.4483 h0.4483 v0.4483 h-0.4483 Z M22.5517,143.4483 h0.4483 v0.4483 h-0.4483 Z M10,143.8966 h0.4483 v0.4483 h-0.4483 Z M10.8966,143.8966 h1.3448 v0.4483 h-1.3448 Z M12.6897,143.8966 h0.4483 v0.4483 h-0.4483 Z M14.4828,143.8966 h1.3448 v0.4483 h-1.3448 Z M16.2759,143.8966 h0.4483 v0.4483 h-0.4483 Z M17.6207,143.8966 h0.8966 v0.4483 h-0.8966 Z M18.9655,143.8966 h0.4483 v0.4483 h-0.4483 Z M19.8621,143.8966 h0.4483 v0.4483 h-0.4483 Z M20.7586,143.8966 h1.3448 v0.4483 h-1.3448 Z M22.5517,143.8966 h0.4483 v0.4483 h-0.4483 Z M10,144.3448 h0.4483 v0.4483 h-0.4483 Z M10.8966,144.3448 h1.3448 v0.4483 h-1.3448 Z M12.6897,144.3448 h0.4483 v0.4483 h-0.4483 Z M13.5862,144.3448 h0.4483 v0.4483 h-0.4483 Z M14.4828,144.3448 h1.3448 v0.4483 h-1.3448 Z M18.069,144.3448 h0.4483 v0.4483 h-0.4483 Z M18.9655,144.3448 h0.4483 v0.4483 h-0.4483 Z M19.8621,144.3448 h0.4483 v0.4483 h-0.4483 Z M20.7586,144.3448 h1.3448 v0.4483 h-1.3448 Z M22.5517,144.3448 h0.4483 v0.4483 h-0.4483 Z M10,144.7931 h0.4483 v0.4483 h-0.4483 Z M10.8966,144.7931 h1.3448 v0.4483 h-1.3448 Z M12.6897,144.7931 h0.4483 v0.4483 h-0.4483 Z M13.5862,144.7931 h1.3448 v0.4483 h-1.3448 Z M15.3793,144.7931 h0.4483 v0.4483 h-0.4483 Z M19.8621,144.7931 h0.4483 v0.4483 h-0.4483 Z M20.7586,144.7931 h1.3448 v0.4483 h-1.3448 Z M22.5517,144.7931 h0.4483 v0.4483 h-0.4483 Z M10,145.2414 h0.4483 v0.4483 h-0.4483 Z M12.6897,145.2414 h0.4483 v0.4483 h-0.4483 Z M13.5862,145.2414 h0.4483 v0.4483 h-0.4483 Z M14.4828,145.2414 h1.3448 v0.4483 h-1.3448 Z M17.1724,145.2414 h1.7931 v0.4483 h-1.7931 Z M19.8621,145.2414 h0.4483 v0.4483 h-0.4483 Z M22.5517,145.2414 h0.4483 v0.4483 h-0.4483 Z M10,145.6897 h3.1379 v0.4483 h-3.1379 Z M13.5862,145.6897 h0.4483 v0.4483 h-0.4483 Z M14.4828,145.6897 h0.4483 v0.4483 h-0.4483 Z M15.3793,145.6897 h0.4483 v0.4483 h-0.4483 Z M16.2759,145.6897 h0.4483 v0.4483 h-0.4483 Z M17.1724,145.6897 h0.4483 v0.4483 h-0.4483 Z M18.069,145.6897 h0.4483 v0.4483 h-0.4483 Z M18.9655,145.6897 h0.4483 v0.4483 h-0.4483 Z M19.8621,145.6897 h3.1379 v0.4483 h-3.1379 Z M13.5862,146.1379 h0.8966 v0.4483 h-0.8966 Z M15.3793,146.1379 h0.8966 v0.4483 h-0.8966 Z M16.7241,146.1379 h1.7931 v0.4483 h-1.7931 Z M18.9655,146.1379 h0.4483 v0.4483 h-0.4483 Z M10,146.5862 h0.4483 v0.4483 h-0.4483 Z M11.7931,146.5862 h0.4483 v0.4483 h-0.4483 Z M12.6897,146.5862 h2.2414 v0.4483 h-2.2414 Z M15.8276,146.5862 h0.4483 v0.4483 h-0.4483 Z M17.6207,146.5862 h0.4483 v0.4483 h-0.4483 Z M18.9655,146.5862 h2.6897 v0.4483 h-2.6897 Z M22.5517,146.5862 h0.4483 v0.4483 h-0.4483 Z M11.3448,147.0345 h0.4483 v0.4483 h-0.4483 Z M12.2414,147.0345 h0.4483 v0.4483 h-0.4483 Z M13.1379,147.0345 h0.8966 v0.4483 h-0.8966 Z M14.4828,147.0345 h2.2414 v0.4483 h-2.2414 Z M17.1724,147.0345 h0.4483 v0.4483 h-0.4483 Z M18.9655,147.0345 h4.0345 v0.4483 h-4.0345 Z M10.8966,147.4828 h0.8966 v0.4483 h-0.8966 Z M12.2414,147.4828 h0.8966 v0.4483 h-0.8966 Z M14.0345,147.4828 h0.4483 v0.4483 h-0.4483 Z M14.931,147.4828 h0.8966 v0.4483 h-0.8966 Z M17.1724,147.4828 h0.4483 v0.4483 h-0.4483 Z M18.9655,147.4828 h2.2414 v0.4483 h-2.2414 Z M22.5517,147.4828 h0.4483 v0.4483 h-0.4483 Z M13.1379,147.931 h0.8966 v0.4483 h-0.8966 Z M14.4828,147.931 h0.8966 v0.4483 h-0.8966 Z M16.2759,147.931 h0.4483 v0.4483 h-0.4483 Z M17.6207,147.931 h1.3448 v0.4483 h-1.3448 Z M20.7586,147.931 h0.8966 v0.4483 h-0.8966 Z M22.1034,147.931 h0.8966 v0.4483 h-0.8966 Z M10.8966,148.3793 h0.4483 v0.4483 h-0.4483 Z M12.6897,148.3793 h0.4483 v0.4483 h-0.4483 Z M14.931,148.3793 h0.4483 v0.4483 h-0.4483 Z M15.8276,148.3793 h2.2414 v0.4483 h-2.2414 Z M18.9655,148.3793 h0.8966 v0.4483 h-0.8966 Z M22.1034,148.3793 h0.4483 v0.4483 h-0.4483 Z M10.4483,148.8276 h0.8966 v0.4483 h-0.8966 Z M12.2414,148.8276 h0.4483 v0.4483 h-0.4483 Z M14.0345,148.8276 h0.4483 v0.4483 h-0.4483 Z M19.8621,148.8276 h0.4483 v0.4483 h-0.4483 Z M20.7586,148.8276 h2.2414 v0.4483 h-2.2414 Z M10.4483,149.2759 h0.4483 v0.4483 h-0.4483 Z M11.3448,149.2759 h0.4483 v0.4483 h-0.4483 Z M12.6897,149.2759 h0.8966 v0.4483 h-0.8966 Z M14.0345,149.2759 h0.4483 v0.4483 h-0.4483 Z M14.931,149.2759 h2.2414 v0.4483 h-2.2414 Z M17.6207,149.2759 h0.8966 v0.4483 h-0.8966 Z M18.9655,149.2759 h0.8966 v0.4483 h-0.8966 Z M20.7586,149.2759 h1.3448 v0.4483 h-1.3448 Z M22.5517,149.2759 h0.4483 v0.4483 h-0.4483 Z M10,149.7241 h0.4483 v0.4483 h-0.4483 Z M10.8966,149.7241 h0.4483 v0.4483 h-0.4483 Z M11.7931,149.7241 h0.8966 v0.4483 h-0.8966 Z M13.1379,149.7241 h0.8966 v0.4483 h-0.8966 Z M14.4828,149.7241 h0.4483 v0.4483 h-0.4483 Z M15.8276,149.7241 h0.4483 v0.4483 h-0.4483 Z M16.7241,149.7241 h1.7931 v0.4483 h-1.7931 Z M19.4138,149.7241 h0.8966 v0.4483 h-0.8966 Z M22.1034,149.7241 h0.8966 v0.4483 h-0.8966 Z M10.4483,150.1724 h1.7931 v0.4483 h-1.7931 Z M12.6897,150.1724 h0.4483 v0.4483 h-0.4483 Z M14.931,150.1724 h0.4483 v0.4483 h-0.4483 Z M15.8276,150.1724 h0.4483 v0.4483 h-0.4483 Z M17.6207,150.1724 h0.4483 v0.4483 h-0.4483 Z M18.5172,150.1724 h1.3448 v0.4483 h-1.3448 Z M20.3103,150.1724 h0.4483 v0.4483 h-0.4483 Z M22.1034,150.1724 h0.4483 v0.4483 h-0.4483 Z M10,150.6207 h1.3448 v0.4483 h-1.3448 Z M11.7931,150.6207 h0.4483 v0.4483 h-0.4483 Z M13.1379,150.6207 h0.8966 v0.4483 h-0.8966 Z M14.931,150.6207 h1.7931 v0.4483 h-1.7931 Z M17.1724,150.6207 h0.4483 v0.4483 h-0.4483 Z M18.069,150.6207 h0.4483 v0.4483 h-0.4483 Z M19.8621,150.6207 h1.7931 v0.4483 h-1.7931 Z M22.1034,150.6207 h0.8966 v0.4483 h-0.8966 Z M10.8966,151.069 h0.4483 v0.4483 h-0.4483 Z M12.2414,151.069 h1.7931 v0.4483 h-1.7931 Z M15.3793,151.069 h0.4483 v0.4483 h-0.4483 Z M17.1724,151.069 h1.3448 v0.4483 h-1.3448 Z M19.4138,151.069 h0.8966 v0.4483 h-0.8966 Z M20.7586,151.069 h0.4483 v0.4483 h-0.4483 Z M21.6552,151.069 h0.4483 v0.4483 h-0.4483 Z M22.5517,151.069 h0.4483 v0.4483 h-0.4483 Z M10.8966,151.5172 h1.3448 v0.4483 h-1.3448 Z M13.1379,151.5172 h0.8966 v0.4483 h-0.8966 Z M14.4828,151.5172 h0.4483 v0.4483 h-0.4483 Z M16.2759,151.5172 h0.4483 v0.4483 h-0.4483 Z M17.6207,151.5172 h1.3448 v0.4483 h-1.3448 Z M19.8621,151.5172 h0.4483 v0.4483 h-0.4483 Z M22.1034,151.5172 h0.8966 v0.4483 h-0.8966 Z M10,151.9655 h1.3448 v0.4483 h-1.3448 Z M12.2414,151.9655 h0.8966 v0.4483 h-0.8966 Z M14.0345,151.9655 h1.3448 v0.4483 h-1.3448 Z M15.8276,151.9655 h1.3448 v0.4483 h-1.3448 Z M17.6207,151.9655 h4.0345 v0.4483 h-4.0345 Z M22.5517,151.9655 h0.4483 v0.4483 h-0.4483 Z M13.5862,152.4138 h1.7931 v0.4483 h-1.7931 Z M17.6207,152.4138 h0.8966 v0.4483 h-0.8966 Z M18.9655,152.4138 h0.4483 v0.4483 h-0.4483 Z M20.7586,152.4138 h0.4483 v0.4483 h-0.4483 Z M22.5517,152.4138 h0.4483 v0.4483 h-0.4483 Z M10,152.8621 h3.1379 v0.4483 h-3.1379 Z M13.5862,152.8621 h0.4483 v0.4483 h-0.4483 Z M14.4828,152.8621 h2.6897 v0.4483 h-2.6897 Z M18.069,152.8621 h1.3448 v0.4483 h-1.3448 Z M19.8621,152.8621 h0.4483 v0.4483 h-0.4483 Z M20.7586,152.8621 h1.3448 v0.4483 h-1.3448 Z M22.5517,152.8621 h0.4483 v0.4483 h-0.4483 Z M10,153.3103 h0.4483 v0.4483 h-0.4483 Z M12.6897,153.3103 h0.4483 v0.4483 h-0.4483 Z M14.0345,153.3103 h0.8966 v0.4483 h-0.8966 Z M15.3793,153.3103 h0.8966 v0.4483 h-0.8966 Z M16.7241,153.3103 h0.4483 v0.4483 h-0.4483 Z M17.6207,153.3103 h0.4483 v0.4483 h-0.4483 Z M18.5172,153.3103 h0.8966 v0.4483 h-0.8966 Z M20.7586,153.3103 h0.4483 v0.4483 h-0.4483 Z M10,153.7586 h0.4483 v0.4483 h-0.4483 Z M10.8966,153.7586 h1.3448 v0.4483 h-1.3448 Z M12.6897,153.7586 h0.4483 v0.4483 h-0.4483 Z M13.5862,153.7586 h0.4483 v0.4483 h-0.4483 Z M14.4828,153.7586 h0.8966 v0.4483 h-0.8966 Z M15.8276,153.7586 h0.4483 v0.4483 h-0.4483 Z M16.7241,153.7586 h0.4483 v0.4483 h-0.4483 Z M17.6207,153.7586 h0.4483 v0.4483 h-0.4483 Z M18.5172,153.7586 h3.1379 v0.4483 h-3.1379 Z M22.1034,153.7586 h0.8966 v0.4483 h-0.8966 Z M10,154.2069 h0.4483 v0.4483 h-0.4483 Z M10.8966,154.2069 h1.3448 v0.4483 h-1.3448 Z M12.6897,154.2069 h0.4483 v0.4483 h-0.4483 Z M14.4828,154.2069 h1.3448 v0.4483 h-1.3448 Z M16.2759,154.2069 h1.3448 v0.4483 h-1.3448 Z M18.069,154.2069 h0.4483 v0.4483 h-0.4483 Z M18.9655,154.2069 h0.8966 v0.4483 h-0.8966 Z M20.3103,154.2069 h0.4483 v0.4483 h-0.4483 Z M22.1034,154.2069 h0.4483 v0.4483 h-0.4483 Z M10,154.6552 h0.4483 v0.4483 h-0.4483 Z M10.8966,154.6552 h1.3448 v0.4483 h-1.3448 Z M12.6897,154.6552 h0.4483 v0.4483 h-0.4483 Z M14.4828,154.6552 h0.4483 v0.4483 h-0.4483 Z M16.2759,154.6552 h0.8966 v0.4483 h-0.8966 Z M21.2069,154.6552 h1.7931 v0.4483 h-1.7931 Z M10,155.1034 h0.4483 v0.4483 h-0.4483 Z M12.6897,155.1034 h0.4483 v0.4483 h-0.4483 Z M14.4828,155.1034 h0.4483 v0.4483 h-0.4483 Z M15.3793,155.1034 h1.3448 v0.4483 h-1.3448 Z M17.6207,155.1034 h0.8966 v0.4483 h-0.8966 Z M18.9655,155.1034 h1.3448 v0.4483 h-1.3448 Z M20.7586,155.1034 h0.8966 v0.4483 h-0.8966 Z M22.1034,155.1034 h0.8966 v0.4483 h-0.8966 Z M10,155.5517 h3.1379 v0.4483 h-3.1379 Z M13.5862,155.5517 h0.4483 v0.4483 h-0.4483 Z M14.931,155.5517 h1.3448 v0.4483 h-1.3448 Z M16.7241,155.5517 h0.4483 v0.4483 h-0.4483 Z M17.6207,155.5517 h0.4483 v0.4483 h-0.4483 Z M18.9655,155.5517 h0.4483 v0.4483 h-0.4483 Z M20.3103,155.5517 h0.8966 v0.4483 h-0.8966 Z M22.1034,155.5517 h0.4483 v0.4483 h-0.4483 Z" fill="#16203F" shape-rendering="crispEdges"/>
      </g>
      <path d="M25.8914 146.6V144.43H27.4755V144.7679H26.2944V145.4282H27.3422V145.7692H26.2944V146.6ZM28.5264 146.6217Q28.2722 146.6217 28.0738 146.5117Q27.8754 146.4016 27.7607 146.2109Q27.646 146.0203 27.646 145.7723Q27.646 145.5243 27.7607 145.3336Q27.8754 145.143 28.0738 145.0345Q28.2722 144.926 28.5264 144.926Q28.7837 144.926 28.9837 145.0345Q29.1836 145.143 29.2968 145.3336Q29.4099 145.5243 29.4099 145.7723Q29.4099 146.0203 29.2968 146.2109Q29.1836 146.4016 28.9837 146.5117Q28.7837 146.6217 28.5264 146.6217ZM28.5264 146.29Q28.7403 146.29 28.8798 146.1505Q29.0193 146.011 29.0193 145.7723Q29.0193 145.5336 28.8798 145.3941Q28.7403 145.2546 28.5264 145.2546Q28.3869 145.2546 28.2769 145.3182Q28.1668 145.3817 28.1017 145.498Q28.0366 145.6142 28.0366 145.7723Q28.0366 145.9304 28.1017 146.0466Q28.1668 146.1629 28.2769 146.2264Q28.3869 146.29 28.5264 146.29ZM29.7819 146.6V144.2998H30.1694V146.6ZM30.6778 146.6V144.2998H31.0653V146.6ZM32.3177 146.6217Q32.0635 146.6217 31.8651 146.5117Q31.6667 146.4016 31.552 146.2109Q31.4373 146.0203 31.4373 145.7723Q31.4373 145.5243 31.552 145.3336Q31.6667 145.143 31.8651 145.0345Q32.0635 144.926 32.3177 144.926Q32.575 144.926 32.775 145.0345Q32.9749 145.143 33.0881 145.3336Q33.2012 145.5243 33.2012 145.7723Q33.2012 146.0203 33.0881 146.2109Q32.9749 146.4016 32.775 146.5117Q32.575 146.6217 32.3177 146.6217ZM32.3177 146.29Q32.5316 146.29 32.6711 146.1505Q32.8106 146.011 32.8106 145.7723Q32.8106 145.5336 32.6711 145.3941Q32.5316 145.2546 32.3177 145.2546Q32.1782 145.2546 32.0682 145.3182Q31.9581 145.3817 31.893 145.498Q31.8279 145.6142 31.8279 145.7723Q31.8279 145.9304 31.893 146.0466Q31.9581 146.1629 32.0682 146.2264Q32.1782 146.29 32.3177 146.29ZM33.8925 146.6 33.2849 144.9446H33.6507L34.0878 146.166L34.5435 144.9446H34.869L35.3154 146.1691L35.7649 144.9446H36.109L35.4983 146.6H35.1263L34.6985 145.4561L34.2645 146.6ZM38.2015 146.631Q37.7551 146.631 37.5025 146.3799Q37.2498 146.1288 37.2498 145.6545V144.43H37.6528V145.639Q37.6528 145.9738 37.797 146.1257Q37.9411 146.2776 38.2046 146.2776Q38.4681 146.2776 38.6107 146.1257Q38.7533 145.9738 38.7533 145.639V144.43H39.1501V145.6545Q39.1501 146.1288 38.8975 146.3799Q38.6448 146.631 38.2015 146.631ZM40.1886 146.6217Q39.9809 146.6217 39.7903 146.569Q39.5996 146.5163 39.488 146.4357L39.6368 146.1412Q39.7453 146.2156 39.9019 146.2605Q40.0584 146.3055 40.2134 146.3055Q40.3994 146.3055 40.48 146.2559Q40.5606 146.2063 40.5606 146.1226Q40.5606 146.042 40.4862 146.0063Q40.4118 145.9707 40.2956 145.9521Q40.1793 145.9335 40.0491 145.9118Q39.9189 145.8901 39.8027 145.8436Q39.6864 145.7971 39.612 145.7026Q39.5376 145.608 39.5376 145.4437Q39.5376 145.2081 39.7345 145.067Q39.9313 144.926 40.2661 144.926Q40.4304 144.926 40.6025 144.9632Q40.7745 145.0004 40.8861 145.0686L40.7373 145.3631Q40.6195 145.2949 40.5002 145.267Q40.3808 145.2391 40.263 145.2391Q40.0863 145.2391 40.0011 145.2918Q39.9158 145.3445 39.9158 145.4251Q39.9158 145.5088 39.9902 145.5491Q40.0646 145.5894 40.1809 145.608Q40.2971 145.6266 40.4273 145.6499Q40.5575 145.6731 40.6738 145.7196Q40.79 145.7661 40.8644 145.8576Q40.9388 145.949 40.9388 146.1102Q40.9388 146.3427 40.7373 146.4822Q40.5358 146.6217 40.1886 146.6217Z" fill="#3C4763"/>
      <g transform="translate(24.9000 148.9000) scale(0.175000)" fill="none" stroke="#3C4763" stroke-width="1.6" stroke-linecap="round" stroke-linejoin="round" id="icon-instagram" data-name="icon-instagram">
        <rect x="3.4" y="3.4" width="17.2" height="17.2" rx="5"/>
        <circle cx="12" cy="12" r="4.1"/>
        <circle cx="17" cy="7.1" r="1.15" fill="#3C4763" stroke="none"/>
      </g>
      <path d="M31.548 152.706Q31.236 152.706 30.978 152.6055Q30.72 152.505 30.5325 152.3205Q30.345 152.136 30.2445 151.8855Q30.144 151.635 30.144 151.338Q30.144 151.041 30.246 150.792Q30.348 150.543 30.537 150.3615Q30.726 150.18 30.9855 150.0795Q31.245 149.979 31.56 149.979Q31.869 149.979 32.124 150.075Q32.379 150.171 32.5665 150.3465Q32.754 150.522 32.856 150.7635Q32.958 151.005 32.958 151.296Q32.958 151.68 32.8185 151.899Q32.679 152.118 32.424 152.118Q32.28 152.118 32.1855 152.0445Q32.091 151.971 32.064 151.833Q31.878 152.118 31.494 152.118Q31.281 152.118 31.116 152.0175Q30.951 151.917 30.855 151.743Q30.759 151.569 30.759 151.347Q30.759 151.122 30.855 150.9495Q30.951 150.777 31.116 150.6795Q31.281 150.582 31.494 150.582Q31.668 150.582 31.809 150.6465Q31.95 150.711 32.043 150.834V150.594H32.304V151.674Q32.304 151.794 32.355 151.842Q32.406 151.89 32.475 151.89Q32.607 151.89 32.6805 151.7355Q32.754 151.581 32.754 151.299Q32.754 150.963 32.604 150.711Q32.454 150.459 32.184 150.318Q31.914 150.177 31.56 150.177Q31.203 150.177 30.933 150.3255Q30.663 150.474 30.513 150.735Q30.363 150.996 30.363 151.338Q30.363 151.68 30.5115 151.944Q30.66 152.208 30.927 152.3565Q31.194 152.505 31.548 152.505Q31.686 152.505 31.839 152.4735Q31.992 152.442 32.127 152.373L32.193 152.565Q32.058 152.637 31.8825 152.6715Q31.707 152.706 31.548 152.706ZM31.536 151.884Q31.683 151.884 31.7985 151.8195Q31.914 151.755 31.9815 151.6335Q32.049 151.512 32.049 151.347Q32.049 151.179 31.9815 151.059Q31.914 150.939 31.7985 150.876Q31.683 150.813 31.536 150.813Q31.311 150.813 31.1685 150.957Q31.026 151.101 31.026 151.347Q31.026 151.59 31.1685 151.737Q31.311 151.884 31.536 151.884ZM33.831 152.118Q33.633 152.118 33.453 152.064Q33.273 152.01 33.174 151.932L33.294 151.704Q33.396 151.776 33.546 151.8225Q33.696 151.869 33.852 151.869Q34.053 151.869 34.1415 151.812Q34.23 151.755 34.23 151.653Q34.23 151.578 34.176 151.536Q34.122 151.494 34.032 151.473Q33.942 151.452 33.8355 151.4355Q33.729 151.419 33.621 151.3935Q33.513 151.368 33.423 151.3215Q33.333 151.275 33.279 151.191Q33.225 151.107 33.225 150.972Q33.225 150.759 33.4035 150.627Q33.582 150.495 33.888 150.495Q34.044 150.495 34.2045 150.534Q34.365 150.573 34.467 150.639L34.344 150.867Q34.236 150.798 34.119 150.7695Q34.002 150.741 33.885 150.741Q33.696 150.741 33.603 150.8025Q33.51 150.864 33.51 150.96Q33.51 151.038 33.5655 151.083Q33.621 151.128 33.7095 151.152Q33.798 151.176 33.906 151.1925Q34.014 151.209 34.1205 151.2345Q34.227 151.26 34.317 151.305Q34.407 151.35 34.4625 151.4325Q34.518 151.515 34.518 151.647Q34.518 151.863 34.3335 151.9905Q34.149 152.118 33.831 152.118ZM34.878 152.1V149.874H35.166V150.732Q35.352 150.495 35.727 150.495Q35.919 150.495 36.069 150.57Q36.219 150.645 36.303 150.798Q36.387 150.951 36.387 151.185V152.1H36.099V151.218Q36.099 150.984 35.9865 150.8685Q35.874 150.753 35.67 150.753Q35.442 150.753 35.304 150.888Q35.166 151.023 35.166 151.281V152.1ZM37.908 152.1V151.893Q37.836 151.998 37.704 152.058Q37.572 152.118 37.386 152.118Q37.116 152.118 36.957 151.9875Q36.798 151.857 36.798 151.65Q36.798 151.521 36.8595 151.416Q36.921 151.311 37.0605 151.248Q37.2 151.185 37.437 151.185H37.893V151.128Q37.893 150.945 37.7865 150.8445Q37.68 150.744 37.467 150.744Q37.326 150.744 37.191 150.7905Q37.056 150.837 36.963 150.915L36.843 150.699Q36.966 150.6 37.1385 150.5475Q37.311 150.495 37.5 150.495Q37.827 150.495 38.004 150.6555Q38.181 150.816 38.181 151.14V152.1ZM37.893 151.614V151.392H37.449Q37.233 151.392 37.158 151.464Q37.083 151.536 37.083 151.638Q37.083 151.758 37.176 151.827Q37.269 151.896 37.434 151.896Q37.596 151.896 37.7175 151.824Q37.839 151.752 37.893 151.614ZM39.558 152.118Q39.39 152.118 39.246 152.0535Q39.102 151.989 39.003 151.863V152.682H38.715V150.51H38.991V150.759Q39.09 150.627 39.237 150.561Q39.384 150.495 39.558 150.495Q39.789 150.495 39.9705 150.5955Q40.152 150.696 40.257 150.879Q40.362 151.062 40.362 151.305Q40.362 151.548 40.257 151.731Q40.152 151.914 39.9705 152.016Q39.789 152.118 39.558 152.118ZM39.534 151.866Q39.687 151.866 39.8085 151.7955Q39.93 151.725 40.0005 151.6005Q40.071 151.476 40.071 151.305Q40.071 151.137 40.0005 151.011Q39.93 150.885 39.8085 150.816Q39.687 150.747 39.534 150.747Q39.384 150.747 39.2625 150.816Q39.141 150.885 39.0705 151.011Q39 151.137 39 151.305Q39 151.476 39.0705 151.6005Q39.141 151.725 39.2625 151.7955Q39.384 151.866 39.534 151.866ZM41.733 152.1V151.893Q41.661 151.998 41.529 152.058Q41.397 152.118 41.211 152.118Q40.941 152.118 40.782 151.9875Q40.623 151.857 40.623 151.65Q40.623 151.521 40.6845 151.416Q40.746 151.311 40.8855 151.248Q41.025 151.185 41.262 151.185H41.718V151.128Q41.718 150.945 41.6115 150.8445Q41.505 150.744 41.292 150.744Q41.151 150.744 41.016 150.7905Q40.881 150.837 40.788 150.915L40.668 150.699Q40.791 150.6 40.9635 150.5475Q41.136 150.495 41.325 150.495Q41.652 150.495 41.829 150.6555Q42.006 150.816 42.006 151.14V152.1ZM41.718 151.614V151.392H41.274Q41.058 151.392 40.983 151.464Q40.908 151.536 40.908 151.638Q40.908 151.758 41.001 151.827Q41.094 151.896 41.259 151.896Q41.421 151.896 41.5425 151.824Q41.664 151.752 41.718 151.614ZM42.54 152.1V150.51H42.816V150.774Q42.975 150.495 43.395 150.495V150.774Q43.377 150.774 43.3605 150.7725Q43.344 150.771 43.329 150.771Q43.098 150.771 42.963 150.909Q42.828 151.047 42.828 151.308V152.1ZM44.628 152.1V151.893Q44.556 151.998 44.424 152.058Q44.292 152.118 44.106 152.118Q43.836 152.118 43.677 151.9875Q43.518 151.857 43.518 151.65Q43.518 151.521 43.5795 151.416Q43.641 151.311 43.7805 151.248Q43.92 151.185 44.157 151.185H44.613V151.128Q44.613 150.945 44.5065 150.8445Q44.4 150.744 44.187 150.744Q44.046 150.744 43.911 150.7905Q43.776 150.837 43.683 150.915L43.563 150.699Q43.686 150.6 43.8585 150.5475Q44.031 150.495 44.22 150.495Q44.547 150.495 44.724 150.6555Q44.901 150.816 44.901 151.14V152.1ZM44.613 151.614V151.392H44.169Q43.953 151.392 43.878 151.464Q43.803 151.536 43.803 151.638Q43.803 151.758 43.896 151.827Q43.989 151.896 44.154 151.896Q44.316 151.896 44.4375 151.824Q44.559 151.752 44.613 151.614ZM45.435 152.1V149.874H45.723V151.302L46.59 150.51H46.938L46.269 151.167L47.004 152.1H46.65L46.053 151.359L45.723 151.665V152.1ZM47.379 152.118Q47.295 152.118 47.235 152.0595Q47.175 152.001 47.175 151.911Q47.175 151.821 47.235 151.764Q47.295 151.707 47.379 151.707Q47.46 151.707 47.5185 151.764Q47.577 151.821 47.577 151.911Q47.577 152.001 47.5185 152.0595Q47.46 152.118 47.379 152.118ZM48.516 152.118Q48.276 152.118 48.144 151.989Q48.012 151.86 48.012 151.62V150.747H47.742V150.51H48.012V150.162H48.3V150.51H48.756V150.747H48.3V151.608Q48.3 151.875 48.549 151.875Q48.684 151.875 48.774 151.8L48.864 152.007Q48.798 152.061 48.7065 152.0895Q48.615 152.118 48.516 152.118ZM49.212 152.1V150.51H49.5V152.1ZM49.356 150.204Q49.272 150.204 49.2165 150.15Q49.161 150.096 49.161 150.018Q49.161 149.94 49.2165 149.8845Q49.272 149.829 49.356 149.829Q49.44 149.829 49.4955 149.8815Q49.551 149.934 49.551 150.012Q49.551 150.093 49.4955 150.1485Q49.44 150.204 49.356 150.204ZM50.505 152.118Q50.307 152.118 50.127 152.064Q49.947 152.01 49.848 151.932L49.968 151.704Q50.07 151.776 50.22 151.8225Q50.37 151.869 50.526 151.869Q50.727 151.869 50.8155 151.812Q50.904 151.755 50.904 151.653Q50.904 151.578 50.85 151.536Q50.796 151.494 50.706 151.473Q50.616 151.452 50.5095 151.4355Q50.403 151.419 50.295 151.3935Q50.187 151.368 50.097 151.3215Q50.007 151.275 49.953 151.191Q49.899 151.107 49.899 150.972Q49.899 150.759 50.0775 150.627Q50.256 150.495 50.562 150.495Q50.718 150.495 50.8785 150.534Q51.039 150.573 51.141 150.639L51.018 150.867Q50.91 150.798 50.793 150.7695Q50.676 150.741 50.559 150.741Q50.37 150.741 50.277 150.8025Q50.184 150.864 50.184 150.96Q50.184 151.038 50.2395 151.083Q50.295 151.128 50.3835 151.152Q50.472 151.176 50.58 151.1925Q50.688 151.209 50.7945 151.2345Q50.901 151.26 50.991 151.305Q51.081 151.35 51.1365 151.4325Q51.192 151.515 51.192 151.647Q51.192 151.863 51.0075 151.9905Q50.823 152.118 50.505 152.118ZM52.008 152.118Q51.81 152.118 51.63 152.064Q51.45 152.01 51.351 151.932L51.471 151.704Q51.573 151.776 51.723 151.8225Q51.873 151.869 52.029 151.869Q52.23 151.869 52.3185 151.812Q52.407 151.755 52.407 151.653Q52.407 151.578 52.353 151.536Q52.299 151.494 52.209 151.473Q52.119 151.452 52.0125 151.4355Q51.906 151.419 51.798 151.3935Q51.69 151.368 51.6 151.3215Q51.51 151.275 51.456 151.191Q51.402 151.107 51.402 150.972Q51.402 150.759 51.5805 150.627Q51.759 150.495 52.065 150.495Q52.221 150.495 52.3815 150.534Q52.542 150.573 52.644 150.639L52.521 150.867Q52.413 150.798 52.296 150.7695Q52.179 150.741 52.062 150.741Q51.873 150.741 51.78 150.8025Q51.687 150.864 51.687 150.96Q51.687 151.038 51.7425 151.083Q51.798 151.128 51.8865 151.152Q51.975 151.176 52.083 151.1925Q52.191 151.209 52.2975 151.2345Q52.404 151.26 52.494 151.305Q52.584 151.35 52.6395 151.4325Q52.695 151.515 52.695 151.647Q52.695 151.863 52.5105 151.9905Q52.326 152.118 52.008 152.118ZM53.724 152.118Q53.418 152.118 53.229 151.947Q53.04 151.776 53.04 151.425V150.51H53.328V151.392Q53.328 151.626 53.4405 151.743Q53.553 151.86 53.757 151.86Q53.982 151.86 54.1155 151.7235Q54.249 151.587 54.249 151.332V150.51H54.537V152.1H54.264V151.863Q54.174 151.986 54.033 152.052Q53.892 152.118 53.724 152.118ZM55.794 152.118Q55.539 152.118 55.3455 152.013Q55.152 151.908 55.0455 151.725Q54.939 151.542 54.939 151.305Q54.939 151.068 55.0425 150.885Q55.146 150.702 55.3275 150.5985Q55.509 150.495 55.737 150.495Q55.968 150.495 56.145 150.597Q56.322 150.699 56.4225 150.8835Q56.523 151.068 56.523 151.314Q56.523 151.332 56.5215 151.356Q56.52 151.38 56.517 151.401H55.227Q55.254 151.611 55.41 151.7385Q55.566 151.866 55.803 151.866Q56.091 151.866 56.262 151.674L56.421 151.86Q56.313 151.986 56.1525 152.052Q55.992 152.118 55.794 152.118ZM55.227 151.194H56.247Q56.226 150.993 56.0865 150.8655Q55.947 150.738 55.737 150.738Q55.53 150.738 55.3905 150.864Q55.251 150.99 55.227 151.194Z" fill="#3C4763"/>
      <path d="M26.209 156.8 25.618 155.21H25.891L26.353 156.476L26.833 155.21H27.076L27.547 156.476L28.021 155.21H28.279L27.685 156.8H27.409L26.95 155.597L26.485 156.8ZM28.882 156.8 28.291 155.21H28.564L29.026 156.476L29.506 155.21H29.749L30.22 156.476L30.694 155.21H30.952L30.358 156.8H30.082L29.623 155.597L29.158 156.8ZM31.555 156.8 30.964 155.21H31.237L31.699 156.476L32.179 155.21H32.422L32.893 156.476L33.367 155.21H33.625L33.031 156.8H32.755L32.296 155.597L31.831 156.8ZM33.886 156.818Q33.802 156.818 33.742 156.7595Q33.682 156.701 33.682 156.611Q33.682 156.521 33.742 156.464Q33.802 156.407 33.886 156.407Q33.967 156.407 34.0255 156.464Q34.084 156.521 34.084 156.611Q34.084 156.701 34.0255 156.7595Q33.967 156.818 33.886 156.818ZM34.954 156.818Q34.756 156.818 34.576 156.764Q34.396 156.71 34.297 156.632L34.417 156.404Q34.519 156.476 34.669 156.5225Q34.819 156.569 34.975 156.569Q35.176 156.569 35.2645 156.512Q35.353 156.455 35.353 156.353Q35.353 156.278 35.299 156.236Q35.245 156.194 35.155 156.173Q35.065 156.152 34.9585 156.1355Q34.852 156.119 34.744 156.0935Q34.636 156.068 34.546 156.0215Q34.456 155.975 34.402 155.891Q34.348 155.807 34.348 155.672Q34.348 155.459 34.5265 155.327Q34.705 155.195 35.011 155.195Q35.167 155.195 35.3275 155.234Q35.488 155.273 35.59 155.339L35.467 155.567Q35.359 155.498 35.242 155.4695Q35.125 155.441 35.008 155.441Q34.819 155.441 34.726 155.5025Q34.633 155.564 34.633 155.66Q34.633 155.738 34.6885 155.783Q34.744 155.828 34.8325 155.852Q34.921 155.876 35.029 155.8925Q35.137 155.909 35.2435 155.9345Q35.35 155.96 35.44 156.005Q35.53 156.05 35.5855 156.1325Q35.641 156.215 35.641 156.347Q35.641 156.563 35.4565 156.6905Q35.272 156.818 34.954 156.818ZM36.001 156.8V154.574H36.289V155.432Q36.475 155.195 36.85 155.195Q37.042 155.195 37.192 155.27Q37.342 155.345 37.426 155.498Q37.51 155.651 37.51 155.885V156.8H37.222V155.918Q37.222 155.684 37.1095 155.5685Q36.997 155.453 36.793 155.453Q36.565 155.453 36.427 155.588Q36.289 155.723 36.289 155.981V156.8ZM39.031 156.8V156.593Q38.959 156.698 38.827 156.758Q38.695 156.818 38.509 156.818Q38.239 156.818 38.08 156.6875Q37.921 156.557 37.921 156.35Q37.921 156.221 37.9825 156.116Q38.044 156.011 38.1835 155.948Q38.323 155.885 38.56 155.885H39.016V155.828Q39.016 155.645 38.9095 155.5445Q38.803 155.444 38.59 155.444Q38.449 155.444 38.314 155.4905Q38.179 155.537 38.086 155.615L37.966 155.399Q38.089 155.3 38.2615 155.2475Q38.434 155.195 38.623 155.195Q38.95 155.195 39.127 155.3555Q39.304 155.516 39.304 155.84V156.8ZM39.016 156.314V156.092H38.572Q38.356 156.092 38.281 156.164Q38.206 156.236 38.206 156.338Q38.206 156.458 38.299 156.527Q38.392 156.596 38.557 156.596Q38.719 156.596 38.8405 156.524Q38.962 156.452 39.016 156.314ZM40.681 156.818Q40.513 156.818 40.369 156.7535Q40.225 156.689 40.126 156.563V157.382H39.838V155.21H40.114V155.459Q40.213 155.327 40.36 155.261Q40.507 155.195 40.681 155.195Q40.912 155.195 41.0935 155.2955Q41.275 155.396 41.38 155.579Q41.485 155.762 41.485 156.005Q41.485 156.248 41.38 156.431Q41.275 156.614 41.0935 156.716Q40.912 156.818 40.681 156.818ZM40.657 156.566Q40.81 156.566 40.9315 156.4955Q41.053 156.425 41.1235 156.3005Q41.194 156.176 41.194 156.005Q41.194 155.837 41.1235 155.711Q41.053 155.585 40.9315 155.516Q40.81 155.447 40.657 155.447Q40.507 155.447 40.3855 155.516Q40.264 155.585 40.1935 155.711Q40.123 155.837 40.123 156.005Q40.123 156.176 40.1935 156.3005Q40.264 156.425 40.3855 156.4955Q40.507 156.566 40.657 156.566ZM42.856 156.8V156.593Q42.784 156.698 42.652 156.758Q42.52 156.818 42.334 156.818Q42.064 156.818 41.905 156.6875Q41.746 156.557 41.746 156.35Q41.746 156.221 41.8075 156.116Q41.869 156.011 42.0085 155.948Q42.148 155.885 42.385 155.885H42.841V155.828Q42.841 155.645 42.7345 155.5445Q42.628 155.444 42.415 155.444Q42.274 155.444 42.139 155.4905Q42.004 155.537 41.911 155.615L41.791 155.399Q41.914 155.3 42.0865 155.2475Q42.259 155.195 42.448 155.195Q42.775 155.195 42.952 155.3555Q43.129 155.516 43.129 155.84V156.8ZM42.841 156.314V156.092H42.397Q42.181 156.092 42.106 156.164Q42.031 156.236 42.031 156.338Q42.031 156.458 42.124 156.527Q42.217 156.596 42.382 156.596Q42.544 156.596 42.6655 156.524Q42.787 156.452 42.841 156.314ZM43.663 156.8V155.21H43.939V155.474Q44.098 155.195 44.518 155.195V155.474Q44.5 155.474 44.4835 155.4725Q44.467 155.471 44.452 155.471Q44.221 155.471 44.086 155.609Q43.951 155.747 43.951 156.008V156.8ZM45.751 156.8V156.593Q45.679 156.698 45.547 156.758Q45.415 156.818 45.229 156.818Q44.959 156.818 44.8 156.6875Q44.641 156.557 44.641 156.35Q44.641 156.221 44.7025 156.116Q44.764 156.011 44.9035 155.948Q45.043 155.885 45.28 155.885H45.736V155.828Q45.736 155.645 45.6295 155.5445Q45.523 155.444 45.31 155.444Q45.169 155.444 45.034 155.4905Q44.899 155.537 44.806 155.615L44.686 155.399Q44.809 155.3 44.9815 155.2475Q45.154 155.195 45.343 155.195Q45.67 155.195 45.847 155.3555Q46.024 155.516 46.024 155.84V156.8ZM45.736 156.314V156.092H45.292Q45.076 156.092 45.001 156.164Q44.926 156.236 44.926 156.338Q44.926 156.458 45.019 156.527Q45.112 156.596 45.277 156.596Q45.439 156.596 45.5605 156.524Q45.682 156.452 45.736 156.314ZM46.558 156.8V154.574H46.846V156.002L47.713 155.21H48.061L47.392 155.867L48.127 156.8H47.773L47.176 156.059L46.846 156.365V156.8ZM48.232 156.101V155.852H49.039V156.101ZM50.059 156.818Q49.819 156.818 49.687 156.689Q49.555 156.56 49.555 156.32V155.447H49.285V155.21H49.555V154.862H49.843V155.21H50.299V155.447H49.843V156.308Q49.843 156.575 50.092 156.575Q50.227 156.575 50.317 156.5L50.407 156.707Q50.341 156.761 50.2495 156.7895Q50.158 156.818 50.059 156.818ZM50.755 156.8V155.21H51.043V156.8ZM50.899 154.904Q50.815 154.904 50.7595 154.85Q50.704 154.796 50.704 154.718Q50.704 154.64 50.7595 154.5845Q50.815 154.529 50.899 154.529Q50.983 154.529 51.0385 154.5815Q51.094 154.634 51.094 154.712Q51.094 154.793 51.0385 154.8485Q50.983 154.904 50.899 154.904ZM52.048 156.818Q51.85 156.818 51.67 156.764Q51.49 156.71 51.391 156.632L51.511 156.404Q51.613 156.476 51.763 156.5225Q51.913 156.569 52.069 156.569Q52.27 156.569 52.3585 156.512Q52.447 156.455 52.447 156.353Q52.447 156.278 52.393 156.236Q52.339 156.194 52.249 156.173Q52.159 156.152 52.0525 156.1355Q51.946 156.119 51.838 156.0935Q51.73 156.068 51.64 156.0215Q51.55 155.975 51.496 155.891Q51.442 155.807 51.442 155.672Q51.442 155.459 51.6205 155.327Q51.799 155.195 52.105 155.195Q52.261 155.195 52.4215 155.234Q52.582 155.273 52.684 155.339L52.561 155.567Q52.453 155.498 52.336 155.4695Q52.219 155.441 52.102 155.441Q51.913 155.441 51.82 155.5025Q51.727 155.564 51.727 155.66Q51.727 155.738 51.7825 155.783Q51.838 155.828 51.9265 155.852Q52.015 155.876 52.123 155.8925Q52.231 155.909 52.3375 155.9345Q52.444 155.96 52.534 156.005Q52.624 156.05 52.6795 156.1325Q52.735 156.215 52.735 156.347Q52.735 156.563 52.5505 156.6905Q52.366 156.818 52.048 156.818ZM53.551 156.818Q53.353 156.818 53.173 156.764Q52.993 156.71 52.894 156.632L53.014 156.404Q53.116 156.476 53.266 156.5225Q53.416 156.569 53.572 156.569Q53.773 156.569 53.8615 156.512Q53.95 156.455 53.95 156.353Q53.95 156.278 53.896 156.236Q53.842 156.194 53.752 156.173Q53.662 156.152 53.5555 156.1355Q53.449 156.119 53.341 156.0935Q53.233 156.068 53.143 156.0215Q53.053 155.975 52.999 155.891Q52.945 155.807 52.945 155.672Q52.945 155.459 53.1235 155.327Q53.302 155.195 53.608 155.195Q53.764 155.195 53.9245 155.234Q54.085 155.273 54.187 155.339L54.064 155.567Q53.956 155.498 53.839 155.4695Q53.722 155.441 53.605 155.441Q53.416 155.441 53.323 155.5025Q53.23 155.564 53.23 155.66Q53.23 155.738 53.2855 155.783Q53.341 155.828 53.4295 155.852Q53.518 155.876 53.626 155.8925Q53.734 155.909 53.8405 155.9345Q53.947 155.96 54.037 156.005Q54.127 156.05 54.1825 156.1325Q54.238 156.215 54.238 156.347Q54.238 156.563 54.0535 156.6905Q53.869 156.818 53.551 156.818ZM55.267 156.818Q54.961 156.818 54.772 156.647Q54.583 156.476 54.583 156.125V155.21H54.871V156.092Q54.871 156.326 54.9835 156.443Q55.096 156.56 55.3 156.56Q55.525 156.56 55.6585 156.4235Q55.792 156.287 55.792 156.032V155.21H56.08V156.8H55.807V156.563Q55.717 156.686 55.576 156.752Q55.435 156.818 55.267 156.818ZM57.337 156.818Q57.082 156.818 56.8885 156.713Q56.695 156.608 56.5885 156.425Q56.482 156.242 56.482 156.005Q56.482 155.768 56.5855 155.585Q56.689 155.402 56.8705 155.2985Q57.052 155.195 57.28 155.195Q57.511 155.195 57.688 155.297Q57.865 155.399 57.9655 155.5835Q58.066 155.768 58.066 156.014Q58.066 156.032 58.0645 156.056Q58.063 156.08 58.06 156.101H56.77Q56.797 156.311 56.953 156.4385Q57.109 156.566 57.346 156.566Q57.634 156.566 57.805 156.374L57.964 156.56Q57.856 156.686 57.6955 156.752Q57.535 156.818 57.337 156.818ZM56.77 155.894H57.79Q57.769 155.693 57.6295 155.5655Q57.49 155.438 57.28 155.438Q57.073 155.438 56.9335 155.564Q56.794 155.69 56.77 155.894ZM58.534 156.818Q58.45 156.818 58.39 156.7595Q58.33 156.701 58.33 156.611Q58.33 156.521 58.39 156.464Q58.45 156.407 58.534 156.407Q58.615 156.407 58.6735 156.464Q58.732 156.521 58.732 156.611Q58.732 156.701 58.6735 156.7595Q58.615 156.818 58.534 156.818ZM59.803 156.818Q59.557 156.818 59.368 156.713Q59.179 156.608 59.071 156.425Q58.963 156.242 58.963 156.005Q58.963 155.768 59.071 155.585Q59.179 155.402 59.368 155.2985Q59.557 155.195 59.803 155.195Q60.016 155.195 60.187 155.2805Q60.358 155.366 60.451 155.534L60.232 155.675Q60.154 155.558 60.0415 155.5025Q59.929 155.447 59.8 155.447Q59.644 155.447 59.521 155.516Q59.398 155.585 59.326 155.7095Q59.254 155.834 59.254 156.005Q59.254 156.176 59.326 156.302Q59.398 156.428 59.521 156.497Q59.644 156.566 59.8 156.566Q59.929 156.566 60.0415 156.5105Q60.154 156.455 60.232 156.338L60.451 156.476Q60.358 156.641 60.187 156.7295Q60.016 156.818 59.803 156.818ZM61.48 156.818Q61.24 156.818 61.054 156.713Q60.868 156.608 60.76 156.425Q60.652 156.242 60.652 156.005Q60.652 155.768 60.76 155.585Q60.868 155.402 61.054 155.2985Q61.24 155.195 61.48 155.195Q61.717 155.195 61.9045 155.2985Q62.092 155.402 62.1985 155.585Q62.305 155.768 62.305 156.005Q62.305 156.242 62.1985 156.425Q62.092 156.608 61.9045 156.713Q61.717 156.818 61.48 156.818ZM61.48 156.566Q61.633 156.566 61.7545 156.4955Q61.876 156.425 61.945 156.299Q62.014 156.173 62.014 156.005Q62.014 155.837 61.945 155.711Q61.876 155.585 61.7545 155.516Q61.633 155.447 61.48 155.447Q61.327 155.447 61.2055 155.516Q61.084 155.585 61.0135 155.711Q60.943 155.837 60.943 156.005Q60.943 156.173 61.0135 156.299Q61.084 156.425 61.2055 156.4955Q61.327 156.566 61.48 156.566ZM62.704 156.8V155.21H62.98V155.447Q63.16 155.195 63.529 155.195Q63.712 155.195 63.856 155.2685Q64 155.342 64.081 155.489Q64.171 155.354 64.3315 155.2745Q64.492 155.195 64.693 155.195Q64.984 155.195 65.164 155.3645Q65.344 155.534 65.344 155.885V156.8H65.056V155.918Q65.056 155.684 64.948 155.5685Q64.84 155.453 64.645 155.453Q64.429 155.453 64.2985 155.588Q64.168 155.723 64.168 155.981V156.8H63.88V155.918Q63.88 155.684 63.772 155.5685Q63.664 155.453 63.469 155.453Q63.253 155.453 63.1225 155.588Q62.992 155.723 62.992 155.981V156.8Z" fill="#3C4763"/>
    </g>
  </g>
</svg>
