<?xml version="1.0" encoding="UTF-8"?>
<svg xmlns="http://www.w3.org/2000/svg" xmlns:xlink="http://www.w3.org/1999/xlink" version="1.1" width="49.99mm" height="13.316mm" viewBox="0 0 49.99 13.316">
  <title>Shaparak Pro - Certification marks row</title>
  <desc>ردیف نشان‌های استاندارد - 50.0 x 13.3 mm, text converted to curves.</desc>
  <g transform="translate(-86.6745 -136.0746)" id="MARKS-ROW" data-name="MARKS-ROW">
    <g id="06-CERTIFICATION-MARKS" data-name="06-CERTIFICATION-MARKS">
      <g id="mark-iran-standard" data-name="mark-iran-standard">
        <circle cx="93" cy="142.4" r="4.1" fill="none" stroke="#16203F" stroke-width="0.451"/>
        <circle cx="93" cy="142.4" r="3.362" fill="none" stroke="#16203F" stroke-width="0.205"/>
        <path d="M90.5979 142.291Q90.6642 142.291 90.7215 142.2809Q90.7788 142.2708 90.8145 142.246Q90.8501 142.2211 90.8501 142.1764Q90.8501 142.131 90.8091 142.0802Q90.768 142.0294 90.6974 141.9789Q90.6267 141.9285 90.5381 141.8853L90.621 141.7123Q90.7276 141.7649 90.8188 141.8316Q90.91 141.8982 90.9662 141.9818Q91.0224 142.0654 91.0224 142.1699Q91.0224 142.3357 90.9114 142.4081Q90.8004 142.4806 90.6087 142.4806Q90.5532 142.4806 90.5046 142.4762Q90.4559 142.4719 90.4098 142.4625V142.2694Q90.4566 142.2788 90.5082 142.2849Q90.5597 142.291 90.5979 142.291ZM91.0037 142.8741 90.9359 142.6968Q91.0959 142.6622 91.1827 142.5879Q91.2696 142.5137 91.2696 142.3703Q91.2696 142.3054 91.2505 142.2265Q91.2314 142.1476 91.2076 142.077L91.3871 142.0179Q91.4145 142.0957 91.4292 142.1825Q91.444 142.2694 91.444 142.3508Q91.444 142.5685 91.3262 142.7011Q91.2083 142.8337 91.0037 142.8741ZM91.7849 141.4752V142.4813H91.6047V141.4752ZM92.3593 142.18Q92.3593 142.1613 92.351 142.1321Q92.3427 142.1029 92.3333 142.0827L92.1943 141.7721L92.3543 141.695L92.5301 142.1029Q92.5661 142.1858 92.5924 142.237Q92.6187 142.2881 92.6699 142.2881H92.7002V142.482H92.6699Q92.5878 142.482 92.5402 142.451Q92.4926 142.42 92.4544 142.3696Q92.4004 142.4243 92.3247 142.4528Q92.249 142.4813 92.1395 142.4813Q92.0789 142.4813 92.0353 142.477Q91.9917 142.4726 91.9471 142.4618V142.2687Q92.0415 142.2903 92.1287 142.2903Q92.1885 142.2903 92.2411 142.2798Q92.2937 142.2694 92.3265 142.2452Q92.3593 142.2211 92.3593 142.18ZM92.7867 142.482H92.6714V142.2881H92.7867Q92.845 142.2881 92.8663 142.2528Q92.8876 142.2175 92.8876 142.1627Q92.8876 142.1137 92.8768 142.0564Q92.8659 141.9991 92.8537 141.9444L93.0303 141.899Q93.044 141.9645 93.0519 142.029Q93.0598 142.0935 93.0598 142.1519Q93.0598 142.2463 93.0346 142.3209Q93.0094 142.3955 92.9496 142.4388Q92.8897 142.482 92.7867 142.482ZM92.8717 141.5595 92.9964 141.6842 92.8717 141.8089 92.747 141.6842ZM93.2213 141.4752H93.4022V142.1397Q93.4022 142.2211 93.427 142.2546Q93.4519 142.2881 93.5232 142.2881H93.5412V142.482H93.5232Q93.3668 142.482 93.294 142.4002Q93.2213 142.3184 93.2213 142.1534ZM93.8677 141.6301 93.9874 141.7483 93.8677 141.868 93.7495 141.7483ZM93.6256 141.6301 93.7452 141.7483 93.6256 141.868 93.5074 141.7483ZM93.5124 142.2881H93.6494Q93.7308 142.2881 93.7625 142.2586Q93.7942 142.229 93.7942 142.1541Q93.7942 142.1137 93.7924 142.0755Q93.7906 142.0373 93.787 141.9998L93.9557 141.9797L93.9701 142.1786Q93.9737 142.2355 94.0021 142.2618Q94.0306 142.2881 94.0911 142.2881H94.1063V142.482H94.0897Q94.0162 142.482 93.9654 142.4553Q93.9146 142.4287 93.8821 142.3854Q93.8396 142.4316 93.7787 142.4568Q93.7178 142.482 93.6494 142.482H93.5124ZM94.5791 142.482Q94.5041 142.482 94.4555 142.4564Q94.4068 142.4308 94.3765 142.3876Q94.3376 142.4316 94.2836 142.4568Q94.2295 142.482 94.143 142.482H94.0767V142.2881H94.1445Q94.2259 142.2881 94.2612 142.2661Q94.2965 142.2442 94.2965 142.1663Q94.2965 142.1498 94.294 142.1047Q94.2915 142.0597 94.2879 142.0186L94.4565 141.9977L94.4717 142.1843Q94.4782 142.2881 94.5805 142.2881Q94.6439 142.2881 94.6652 142.26Q94.6864 142.2319 94.6864 142.1663Q94.6864 142.1505 94.6839 142.1051Q94.6814 142.0597 94.6778 142.0186L94.8464 141.9977L94.8616 142.1843Q94.8645 142.2312 94.8854 142.2597Q94.9063 142.2881 94.9553 142.2881Q95.0014 142.2881 95.0187 142.2521Q95.036 142.2161 95.036 142.1663Q95.036 142.126 95.0291 142.0838Q95.0223 142.0417 95.0136 142.0063Q95.005 141.971 95.0007 141.9537L95.1744 141.9062Q95.1888 141.9617 95.1981 142.024Q95.2075 142.0863 95.2075 142.1483Q95.2075 142.2355 95.1845 142.3116Q95.1614 142.3876 95.1063 142.4348Q95.0511 142.482 94.956 142.482Q94.8904 142.482 94.8464 142.455Q94.8025 142.4279 94.7729 142.3861Q94.7355 142.4287 94.6882 142.4553Q94.641 142.482 94.5791 142.482ZM95.5506 141.4752V142.4813H95.3704V141.4752Z" fill="#16203F"/>
        <path d="M92.2501 143.9061 92.343 143.999 92.2501 144.0919 92.1573 143.999ZM92.2578 144.6178Q92.3648 144.6178 92.4234 144.5829Q92.4821 144.548 92.5054 144.4913Q92.5288 144.4346 92.5288 144.3699Q92.5288 144.2937 92.5083 144.2194Q92.4878 144.1451 92.4699 144.0977L92.5794 144.0535Q92.6095 144.1361 92.6252 144.2139Q92.6409 144.2918 92.6409 144.3622Q92.6409 144.4705 92.6009 144.5544Q92.5609 144.6383 92.4763 144.6858Q92.3917 144.7332 92.2578 144.7332Q92.1195 144.7332 92.0365 144.6825Q91.9535 144.6319 91.9167 144.5477Q91.8799 144.4635 91.8799 144.3629Q91.8799 144.295 91.894 144.2235Q91.9081 144.1521 91.9324 144.0842L92.0343 144.1252Q92.0157 144.1841 92.0029 144.2463Q91.9901 144.3084 91.9901 144.3667Q91.9901 144.4359 92.0147 144.4929Q92.0394 144.5499 92.0977 144.5839Q92.156 144.6178 92.2578 144.6178ZM92.9106 143.5679V144.4494H92.8024V143.5679ZM93.4212 144.45Q93.377 144.45 93.3472 144.4381Q93.3174 144.4263 93.3008 144.4128Q93.2912 144.4968 93.2543 144.5752Q93.2175 144.6537 93.1438 144.712Q93.0701 144.7703 92.9491 144.794L92.9113 144.6928Q93.0676 144.6588 93.1316 144.574Q93.1957 144.4891 93.1957 144.3731Q93.1957 144.3187 93.1839 144.2588Q93.172 144.1989 93.1509 144.1367L93.2572 144.1009L93.2918 144.2348Q93.3059 144.2886 93.3366 144.311Q93.3674 144.3334 93.4142 144.3334H93.4385V144.45ZM93.4129 144.3334H93.5955Q93.6595 144.3334 93.6823 144.2963Q93.705 144.2591 93.705 144.2021Q93.705 144.1604 93.6973 144.113Q93.6896 144.0656 93.6807 144.0176L93.7921 143.9894Q93.803 144.0406 93.8094 144.09Q93.8158 144.1393 93.8158 144.1841Q93.8158 144.261 93.7947 144.3212Q93.7736 144.3815 93.7255 144.4157Q93.6775 144.45 93.5967 144.45H93.4129ZM93.6877 144.5519 93.7774 144.6409 93.6877 144.7312 93.5987 144.6409ZM93.475 144.5519 93.5647 144.6409 93.475 144.7312 93.386 144.6409ZM94.0855 143.5679V144.4494H93.9773V143.5679Z" fill="#16203F"/>
      </g>
      <g id="mark-iso" data-name="mark-iso">
        <ellipse cx="111" cy="143" rx="4.48" ry="4" fill="none" stroke="#16203F" stroke-width="0.44"/>
        <path d="M108.6326 142.84V140.824H109.0992V142.84ZM110.2397 142.8746Q109.9978 142.8746 109.776 142.8098Q109.5542 142.745 109.4189 142.6413L109.5773 142.2899Q109.704 142.3821 109.8826 142.4411Q110.0611 142.5002 110.2426 142.5002Q110.4499 142.5002 110.5406 142.4397Q110.6314 142.3792 110.6314 142.2842Q110.6314 142.2035 110.568 142.156Q110.5046 142.1085 110.3995 142.0782Q110.2944 142.048 110.1706 142.0206Q110.0467 141.9933 109.9214 141.9544Q109.7962 141.9155 109.691 141.8507Q109.5859 141.7859 109.5226 141.6808Q109.4592 141.5757 109.4592 141.4173Q109.4592 141.2445 109.5528 141.1019Q109.6464 140.9594 109.835 140.8744Q110.0237 140.7894 110.3088 140.7894Q110.4989 140.7894 110.6832 140.8355Q110.8675 140.8816 111.0086 140.968L110.8646 141.3222Q110.7235 141.2416 110.581 141.2027Q110.4384 141.1638 110.3059 141.1638Q110.0986 141.1638 110.0107 141.2315Q109.9229 141.2992 109.9229 141.3942Q109.9229 141.472 109.9862 141.5195Q110.0496 141.567 110.1533 141.5973Q110.257 141.6275 110.3822 141.6534Q110.5075 141.6794 110.6328 141.7182Q110.7581 141.7571 110.8632 141.8205Q110.9683 141.8838 111.0317 141.9875Q111.095 142.0912 111.095 142.2496Q111.095 142.4195 111.0014 142.5606Q110.9078 142.7018 110.7178 142.7882Q110.5277 142.8746 110.2397 142.8746ZM112.391 142.8746Q112.152 142.8746 111.9518 142.7968Q111.7517 142.719 111.6019 142.5779Q111.4522 142.4368 111.3701 142.2467Q111.288 142.0566 111.288 141.832Q111.288 141.6074 111.3701 141.4173Q111.4522 141.2272 111.6019 141.0861Q111.7517 140.945 111.9518 140.8672Q112.152 140.7894 112.391 140.7894Q112.6301 140.7894 112.8302 140.8672Q113.0304 140.945 113.1802 141.0846Q113.3299 141.2243 113.412 141.4158Q113.4941 141.6074 113.4941 141.832Q113.4941 142.0566 113.412 142.2482Q113.3299 142.4397 113.1802 142.5794Q113.0304 142.719 112.8302 142.7968Q112.6301 142.8746 112.391 142.8746ZM112.391 142.4771Q112.5696 142.4771 112.7122 142.395Q112.8547 142.313 112.9382 142.1675Q113.0218 142.0221 113.0218 141.832Q113.0218 141.6419 112.9382 141.4965Q112.8547 141.351 112.7122 141.269Q112.5696 141.1869 112.391 141.1869Q112.2125 141.1869 112.0699 141.269Q111.9274 141.351 111.8438 141.4965Q111.7603 141.6419 111.7603 141.832Q111.7603 142.0221 111.8438 142.1675Q111.9274 142.313 112.0699 142.395Q112.2125 142.4771 112.391 142.4771Z" fill="#16203F"/>
        <path d="M108.7122 145.4998Q108.5907 145.4998 108.4778 145.475Q108.365 145.4502 108.2807 145.3982L108.3749 145.2047Q108.4419 145.2494 108.5287 145.268Q108.6155 145.2866 108.7097 145.2866Q108.9726 145.2866 109.1288 145.1216Q109.2851 144.9567 109.2851 144.6318Q109.2851 144.617 109.2851 144.6021Q109.2851 144.5872 109.2851 144.5698Q109.2082 144.6814 109.0768 144.7397Q108.9453 144.798 108.7841 144.798Q108.6105 144.798 108.4766 144.7335Q108.3427 144.669 108.267 144.5512Q108.1914 144.4334 108.1914 144.2722Q108.1914 144.1036 108.272 143.9808Q108.3526 143.8581 108.4927 143.7911Q108.6328 143.7242 108.804 143.7242Q109.1536 143.7242 109.3434 143.9498Q109.5331 144.1755 109.5331 144.5897Q109.5331 144.8848 109.4289 145.0882Q109.3248 145.2915 109.14 145.3957Q108.9552 145.4998 108.7122 145.4998ZM108.8263 144.5971Q109.0048 144.5971 109.1164 144.5004Q109.228 144.4037 109.228 144.2598Q109.228 144.1259 109.1226 144.0255Q109.0172 143.925 108.8139 143.925Q108.6452 143.925 108.5386 144.0168Q108.432 144.1086 108.432 144.2623Q108.432 144.4161 108.5374 144.5066Q108.6428 144.5971 108.8263 144.5971ZM110.4804 145.4998Q110.2771 145.4998 110.1171 145.3957Q109.9572 145.2915 109.8642 145.0931Q109.7712 144.8947 109.7712 144.612Q109.7712 144.3293 109.8642 144.1309Q109.9572 143.9325 110.1171 143.8283Q110.2771 143.7242 110.4804 143.7242Q110.6813 143.7242 110.8413 143.8283Q111.0012 143.9325 111.0942 144.1309Q111.1872 144.3293 111.1872 144.612Q111.1872 144.8947 111.0942 145.0931Q111.0012 145.2915 110.8413 145.3957Q110.6813 145.4998 110.4804 145.4998ZM110.4804 145.2791Q110.6838 145.2791 110.8115 145.1117Q110.9392 144.9443 110.9392 144.612Q110.9392 144.2797 110.8115 144.1123Q110.6838 143.9449 110.4804 143.9449Q110.2746 143.9449 110.1469 144.1123Q110.0192 144.2797 110.0192 144.612Q110.0192 144.9443 110.1469 145.1117Q110.2746 145.2791 110.4804 145.2791ZM112.1346 145.4998Q111.9312 145.4998 111.7713 145.3957Q111.6113 145.2915 111.5183 145.0931Q111.4253 144.8947 111.4253 144.612Q111.4253 144.3293 111.5183 144.1309Q111.6113 143.9325 111.7713 143.8283Q111.9312 143.7242 112.1346 143.7242Q112.3355 143.7242 112.4954 143.8283Q112.6554 143.9325 112.7484 144.1309Q112.8414 144.3293 112.8414 144.612Q112.8414 144.8947 112.7484 145.0931Q112.6554 145.2915 112.4954 145.3957Q112.3355 145.4998 112.1346 145.4998ZM112.1346 145.2791Q112.338 145.2791 112.4657 145.1117Q112.5934 144.9443 112.5934 144.612Q112.5934 144.2797 112.4657 144.1123Q112.338 143.9449 112.1346 143.9449Q111.9288 143.9449 111.801 144.1123Q111.6733 144.2797 111.6733 144.612Q111.6733 144.9443 111.801 145.1117Q111.9288 145.2791 112.1346 145.2791ZM113.3721 145.48V143.9598H112.9803V143.744H113.6176V145.48Z" fill="#16203F"/>
      </g>
      <g transform="translate(124.7000 137.7000) scale(0.441667)" fill="none" stroke="#1A1A1A" stroke-width="1.9" stroke-linecap="round" stroke-linejoin="round" id="icon-recycle" data-name="icon-recycle">
        <path d="M13.93,5.27 A7.0,7.0 0 0 1 18.93,11.03"/>
        <path d="M18.79,13.69 L21.61,10.65 L16.26,11.40 Z" fill="#1A1A1A" stroke="none"/>
        <path d="M16.86,17.04 A7.0,7.0 0 0 1 9.38,18.49"/>
        <path d="M7.14,17.04 L8.37,20.99 L10.39,15.99 Z" fill="#1A1A1A" stroke="none"/>
        <path d="M5.21,13.69 A7.0,7.0 0 0 1 7.69,6.48"/>
        <path d="M10.07,5.27 L6.03,4.36 L9.35,8.61 Z" fill="#1A1A1A" stroke="none"/>
      </g>
    </g>
  </g>
</svg>
